<?xml version="1.0" encoding="UTF-8" standalone="no"?>
<svg
   inkscape:export-ydpi="96"
   inkscape:export-xdpi="96"
   inkscape:export-filename="Fearmonger.png"
   inkscape:version="1.4.3 (0d15f75, 2025-12-25)"
   sodipodi:docname="Fearmonger.svg"
   viewBox="0 0 288 288"
   height="288"
   width="288"
   id="svg22"
   version="1.1"
   xmlns:inkscape="http://www.inkscape.org/namespaces/inkscape"
   xmlns:sodipodi="http://sodipodi.sourceforge.net/DTD/sodipodi-0.dtd"
   xmlns="http://www.w3.org/2000/svg"
   xmlns:svg="http://www.w3.org/2000/svg"
   xmlns:rdf="http://www.w3.org/1999/02/22-rdf-syntax-ns#"
   xmlns:cc="http://creativecommons.org/ns#"
   xmlns:dc="http://purl.org/dc/elements/1.1/">
  <metadata
     id="metadata28">
    <rdf:RDF>
      <cc:Work
         rdf:about="">
        <dc:format>image/svg+xml</dc:format>
        <dc:type
           rdf:resource="http://purl.org/dc/dcmitype/StillImage" />
      </cc:Work>
    </rdf:RDF>
  </metadata>
  <defs
     id="defs26">
    <filter
       inkscape:collect="always"
       style="color-interpolation-filters:sRGB"
       id="filter2"
       x="-0.0481688"
       y="-0.047832381"
       width="1.0963376"
       height="1.0956648">
      <feGaussianBlur
         inkscape:collect="always"
         stdDeviation="0.58521484"
         id="feGaussianBlur2" />
    </filter>
  </defs>
  <sodipodi:namedview
     inkscape:current-layer="g30"
     inkscape:window-maximized="1"
     inkscape:window-y="0"
     inkscape:window-x="0"
     inkscape:cy="144"
     inkscape:cx="144"
     inkscape:zoom="2.7986111"
     showgrid="false"
     id="namedview24"
     inkscape:window-height="1008"
     inkscape:window-width="1920"
     inkscape:pageshadow="2"
     inkscape:pageopacity="0"
     guidetolerance="10"
     gridtolerance="10"
     objecttolerance="10"
     borderopacity="1"
     bordercolor="#666666"
     pagecolor="#ffffff"
     inkscape:showpageshadow="2"
     inkscape:pagecheckerboard="0"
     inkscape:deskcolor="#d1d1d1" />
  <g
     transform="translate(-377.81055,88.107422)"
     id="g30"
     inkscape:label="Image"
     inkscape:groupmode="layer">
    <g
       id="g2"
       transform="rotate(-45,73.294475,530.32484)">
      <g
         id="g1"
         transform="matrix(2.0929843,0,0,2.0929843,-605.86537,-558.10906)"
         style="stroke-width:0.477787">
        <path
           style="font-weight:bold;font-size:82.743px;font-family:Ubuntu;-inkscape-font-specification:'Ubuntu Bold';text-align:center;text-anchor:middle;fill:#d6d8db;fill-opacity:1;stroke:#75787c;stroke-width:2.86672;stroke-linecap:square;stroke-linejoin:round;stroke-miterlimit:1000;stroke-dasharray:none;stroke-opacity:1;paint-order:fill markers stroke"
           d="m 685.81804,501.72496 c 3.01494,0 5.34471,0.99359 6.98929,2.98074 1.6445,1.91863 2.46678,4.11135 2.46678,6.57816 0,2.4668 -0.82228,4.6938 -2.46678,6.68093 -1.64458,1.91864 -3.97435,2.87794 -6.98929,2.87794 -3.01504,0 -5.34479,-0.9593 -6.98929,-2.87794 -1.64458,-1.98713 -2.46687,-4.21414 -2.46687,-6.68093 0,-2.46681 0.8223,-4.65953 2.46687,-6.57816 1.6445,-1.98716 3.97425,-2.98074 6.98929,-2.98074 z"
           id="path1" />
        <path
           style="font-weight:bold;font-size:82.743px;font-family:Ubuntu;-inkscape-font-specification:'Ubuntu Bold';text-align:center;text-anchor:middle;fill:#999999;fill-opacity:1;stroke:#727272;stroke-width:2.86672;stroke-linecap:square;stroke-linejoin:round;stroke-miterlimit:1000;stroke-dasharray:none;stroke-opacity:1;paint-order:fill markers stroke"
           d="m 639.26981,502.0307 c 5.55033,0 10.72377,0.23154 15.5204,0.69445 4.79655,0.46299 9.66169,1.0803 14.59527,1.85193 v 13.19495 c -4.93358,0.77165 -9.79872,1.42754 -14.59527,1.96766 -4.79663,0.463 -9.97006,0.69452 -15.5204,0.69452 H 620.87156 V 502.0307 Z"
           id="text41" />
        <path
           id="path2"
           style="font-weight:bold;font-size:82.743px;font-family:Ubuntu;-inkscape-font-specification:'Ubuntu Bold';text-align:center;text-anchor:middle;opacity:0.5;fill:#d6d8db;fill-opacity:1;stroke:none;stroke-width:2.86672;stroke-linecap:square;stroke-linejoin:round;stroke-miterlimit:1000;stroke-dasharray:none;stroke-opacity:1;paint-order:fill markers stroke;filter:url(#filter2)"
           sodipodi:type="inkscape:offset"
           inkscape:radius="5.1229272"
           inkscape:original="M 685.81836 501.72461 C 682.80332 501.72461 680.47262 502.71792 678.82812 504.70508 C 677.18356 506.62371 676.36133 508.81639 676.36133 511.2832 C 676.36133 513.74999 677.18354 515.97771 678.82812 517.96484 C 680.47262 519.88348 682.80332 520.8418 685.81836 520.8418 C 688.8333 520.8418 691.16206 519.88348 692.80664 517.96484 C 694.45114 515.97771 695.27344 513.75 695.27344 511.2832 C 695.27344 508.81639 694.45114 506.62371 692.80664 504.70508 C 691.16206 502.71793 688.8333 501.72461 685.81836 501.72461 z "
           d="m 685.81836,496.60156 c -4.12107,0 -8.26876,1.6546 -10.89649,4.79883 -2.33678,2.73881 -3.68359,6.28908 -3.68359,9.88281 0,3.60515 1.33367,7.15744 3.64258,9.94727 a 5.1234395,5.1234395 0 0 0 0.0566,0.0684 c 2.65244,3.0946 6.78028,4.66601 10.88086,4.66601 4.10051,0 8.22577,-1.57303 10.87695,-4.66601 a 5.1234395,5.1234395 0 0 0 0.0586,-0.0684 c 2.30871,-2.78973 3.64257,-6.34199 3.64257,-9.94727 0,-3.59236 -1.3448,-7.14061 -3.67968,-9.8789 -2.62632,-3.14538 -6.77556,-4.80274 -10.89844,-4.80274 z" />
      </g>
      <circle
         style="fill:#00b0e1;fill-opacity:1;stroke:#298199;stroke-width:6;stroke-linejoin:round;stroke-miterlimit:4;stroke-dasharray:none;stroke-opacity:1"
         id="path22"
         cx="640"
         cy="512"
         r="57.000004" />
    </g>
  </g>
</svg>
