<?xml version="1.0" encoding="UTF-8" standalone="no"?>
<svg
   version="1.1"
   id="svg870"
   width="480"
   height="480"
   viewBox="0 0 480 480.00001"
   sodipodi:docname="Laser Blast.svg"
   inkscape:version="1.4 (86a8ad7, 2024-10-11)"
   inkscape:export-filename="Laser Blast.png"
   inkscape:export-xdpi="96"
   inkscape:export-ydpi="96"
   xmlns:inkscape="http://www.inkscape.org/namespaces/inkscape"
   xmlns:sodipodi="http://sodipodi.sourceforge.net/DTD/sodipodi-0.dtd"
   xmlns="http://www.w3.org/2000/svg"
   xmlns:svg="http://www.w3.org/2000/svg"
   xmlns:rdf="http://www.w3.org/1999/02/22-rdf-syntax-ns#"
   xmlns:cc="http://creativecommons.org/ns#"
   xmlns:dc="http://purl.org/dc/elements/1.1/">
  <metadata
     id="metadata876">
    <rdf:RDF>
      <cc:Work
         rdf:about="">
        <dc:format>image/svg+xml</dc:format>
        <dc:type
           rdf:resource="http://purl.org/dc/dcmitype/StillImage" />
      </cc:Work>
    </rdf:RDF>
  </metadata>
  <defs
     id="defs874" />
  <sodipodi:namedview
     inkscape:snap-object-midpoints="true"
     inkscape:document-rotation="0"
     pagecolor="#ffffff"
     bordercolor="#666666"
     borderopacity="1"
     objecttolerance="10"
     gridtolerance="10"
     guidetolerance="10"
     inkscape:pageopacity="0"
     inkscape:pageshadow="2"
     inkscape:window-width="1920"
     inkscape:window-height="1017"
     id="namedview872"
     showgrid="false"
     inkscape:zoom="1.9474037"
     inkscape:cx="240.06322"
     inkscape:cy="240.06322"
     inkscape:window-x="-8"
     inkscape:window-y="-8"
     inkscape:window-maximized="1"
     inkscape:current-layer="g878"
     inkscape:object-nodes="false"
     inkscape:snap-center="true"
     inkscape:showpageshadow="2"
     inkscape:pagecheckerboard="0"
     inkscape:deskcolor="#d1d1d1" />
  <g
     inkscape:groupmode="layer"
     inkscape:label="Image"
     id="g878"
     transform="translate(-580.01885,-439.05205)">
    <path
       id="path22-9"
       style="fill:#00b0e1;fill-opacity:1;stroke:#298199;stroke-width:22.6071;stroke-linejoin:round;stroke-miterlimit:4;stroke-dasharray:none;stroke-opacity:1;paint-order:markers stroke fill"
       d="M 257.84815 1008.0322 A 68.767456 68.767456 0 0 0 212.81428 991.23568 L -13.458505 991.23706 L -13.459886 991.23845 A 68.767456 68.767456 0 0 0 -82.224639 1060.0032 A 68.767456 68.767456 0 0 0 -13.458505 1128.7693 L 212.81567 1128.7693 A 68.767456 68.767456 0 0 0 281.5818 1060.0032 A 68.767456 68.767456 0 0 0 257.84815 1008.0322 z "
       transform="rotate(-45)" />
    <path
       id="path1"
       style="fill:#00b0e1;fill-opacity:1;stroke:#298199;stroke-width:22.6071;stroke-linejoin:round;stroke-miterlimit:4;stroke-dasharray:none;stroke-opacity:1;paint-order:markers stroke fill;opacity:0.5"
       sodipodi:type="inkscape:offset"
       inkscape:radius="18.887995"
       inkscape:original="M -13.458984 991.23633 L -13.458984 991.23828 A 68.767456 68.767456 0 0 0 -82.224609 1060.002 A 68.767456 68.767456 0 0 0 -13.458984 1128.7676 L 212.81641 1128.7676 A 68.767456 68.767456 0 0 0 281.58203 1060.002 A 68.767456 68.767456 0 0 0 257.84766 1008.0312 A 68.767456 68.767456 0 0 0 212.81445 991.23633 L -13.458984 991.23633 z "
       d="m -13.458984,972.34766 a 18.889884,18.889884 0 0 0 -0.0098,0.002 c -22.943666,0.003 -45.744875,9.4504 -61.96875,25.67383 -16.226176,16.22576 -25.67453,39.02956 -25.67578,61.97656 a 18.889884,18.889884 0 0 0 0,0 c 6.2e-4,22.9473 9.44759,45.7542 25.673827,61.9804 16.226237,16.2263 39.033109,25.6732 61.980469,25.6739 H 212.81641 c 22.94736,-7e-4 45.75423,-9.4476 61.98046,-25.6739 16.22624,-16.2262 25.67321,-39.0331 25.67383,-61.9804 -7e-5,-25.0343 -11.33426,-49.8522 -30.2539,-66.24614 -15.76674,-13.66097 -36.54061,-21.4088 -57.40235,-21.4082 z"
       transform="rotate(-45)" />
  </g>
</svg>
