<?xml version="1.0" encoding="UTF-8" standalone="no"?>
<svg
   version="1.1"
   id="svg870"
   width="120"
   height="120"
   viewBox="0 0 120 120"
   sodipodi:docname="Mule.svg"
   inkscape:version="1.4.3 (0d15f75042, 2025-12-25)"
   inkscape:export-filename="D:\Arras Images\actualtanks\Chest.png"
   inkscape:export-xdpi="864"
   inkscape:export-ydpi="864"
   xmlns:inkscape="http://www.inkscape.org/namespaces/inkscape"
   xmlns:sodipodi="http://sodipodi.sourceforge.net/DTD/sodipodi-0.dtd"
   xmlns="http://www.w3.org/2000/svg"
   xmlns:svg="http://www.w3.org/2000/svg"
   xmlns:rdf="http://www.w3.org/1999/02/22-rdf-syntax-ns#"
   xmlns:cc="http://creativecommons.org/ns#"
   xmlns:dc="http://purl.org/dc/elements/1.1/">
  <metadata
     id="metadata876">
    <rdf:RDF>
      <cc:Work
         rdf:about="">
        <dc:format>image/svg+xml</dc:format>
        <dc:type
           rdf:resource="http://purl.org/dc/dcmitype/StillImage" />
      </cc:Work>
    </rdf:RDF>
  </metadata>
  <defs
     id="defs874" />
  <sodipodi:namedview
     inkscape:snap-object-midpoints="true"
     inkscape:document-rotation="0"
     pagecolor="#ffffff"
     bordercolor="#666666"
     borderopacity="1"
     objecttolerance="10"
     gridtolerance="10"
     guidetolerance="10"
     inkscape:pageopacity="0"
     inkscape:pageshadow="2"
     inkscape:window-width="1920"
     inkscape:window-height="1008"
     id="namedview872"
     showgrid="false"
     inkscape:zoom="5.1739228"
     inkscape:cx="82.432617"
     inkscape:cy="59.915853"
     inkscape:window-x="0"
     inkscape:window-y="0"
     inkscape:window-maximized="1"
     inkscape:current-layer="g878"
     inkscape:object-nodes="false"
     inkscape:snap-center="false"
     inkscape:snap-smooth-nodes="false"
     inkscape:showpageshadow="2"
     inkscape:pagecheckerboard="0"
     inkscape:deskcolor="#d1d1d1" />
  <g
     inkscape:groupmode="layer"
     inkscape:label="Image"
     id="g878"
     transform="translate(-580,-452)">
    <g
       id="g1"
       transform="matrix(0.34107365,-0.34107365,0.34107365,0.34107365,244.97443,557.76616)"
       style="stroke-width:12.4391;stroke-dasharray:none;paint-order:markers stroke fill">
      <rect
         style="fill:#999999;fill-opacity:1;stroke:#757575;stroke-width:12.4391;stroke-linejoin:round;stroke-dasharray:none;stroke-opacity:1;paint-order:markers stroke fill"
         id="rect897"
         width="49.5"
         height="49"
         x="692.36523"
         y="487.5" />
      <path
         id="path46"
         style="fill:#00b0e1;fill-opacity:1;stroke:#298199;stroke-width:12.4391;stroke-linejoin:round;stroke-miterlimit:4;stroke-dasharray:none;stroke-opacity:1;paint-order:markers stroke fill"
         d="M 3,3 V 60 60.019531 117 h 57 0.01953 c 1.925829,-6.5e-4 3.82838,-0.10188 5.705078,-0.28906 0.0039,-3.9e-4 0.0078,-0.002 0.01172,-0.002 a 57.000004,57.000004 0 0 0 0.199219,-0.0195 c 1.795555,-0.18582 3.564509,-0.46195 5.306641,-0.81054 a 57.000004,57.000004 0 0 0 0.128906,-0.0254 57.000004,57.000004 0 0 0 0.371094,-0.0762 c 1.652264,-0.34612 3.274825,-0.76807 4.871093,-1.2539 a 57.000004,57.000004 0 0 0 0.289063,-0.0879 57.000004,57.000004 0 0 0 0.384765,-0.1211 c 1.552429,-0.49376 3.076783,-1.05189 4.56836,-1.67187 a 57.000004,57.000004 0 0 0 0.410156,-0.17188 57.000004,57.000004 0 0 0 0.244141,-0.10547 c 1.502595,-0.64681 2.973715,-1.35205 4.40625,-2.12109 a 57.000004,57.000004 0 0 0 0.46289,-0.25 c 1.496568,-0.82136 2.954246,-1.70435 4.365235,-2.65234 0.0012,-8.1e-4 0.0027,-0.001 0.0039,-0.002 a 57.000004,57.000004 0 0 0 0.240234,-0.16211 c 1.452877,-0.98704 2.860204,-2.03687 4.212891,-3.15039 a 57.000004,57.000004 0 0 0 0.09961,-0.082 c 1.387883,-1.14775 2.721406,-2.35873 3.994144,-3.63086 0.007,-0.007 0.0127,-0.0146 0.0195,-0.0215 1.27012,-1.270788 2.48083,-2.600751 3.62696,-3.986329 0.004,-0.005 0.008,-0.01063 0.0117,-0.01563 a 57.000004,57.000004 0 0 0 0.0684,-0.08203 c 1.11524,-1.354301 2.16587,-2.763981 3.15431,-4.21875 a 57.000004,57.000004 0 0 0 0.16602,-0.246093 c 0.004,-0.0058 0.008,-0.01175 0.0117,-0.01758 0.93773,-1.396827 1.8113,-2.839652 2.625,-4.320312 0.004,-0.0064 0.006,-0.01316 0.01,-0.01953 a 57.000004,57.000004 0 0 0 0.24805,-0.457031 c 0.77162,-1.436386 1.4802,-2.911112 2.1289,-4.417969 a 57.000004,57.000004 0 0 0 0.11329,-0.263672 57.000004,57.000004 0 0 0 0.16992,-0.408203 c 0.61822,-1.488572 1.17544,-3.009447 1.66797,-4.558594 a 57.000004,57.000004 0 0 0 0.125,-0.396484 57.000004,57.000004 0 0 0 0.0801,-0.261719 c 0.48665,-1.597951 0.90728,-3.222869 1.25391,-4.876953 a 57.000004,57.000004 0 0 0 0.082,-0.394532 57.000004,57.000004 0 0 0 0.0234,-0.117187 c 0.34771,-1.738989 0.62306,-3.504665 0.80859,-5.296875 a 57.000004,57.000004 0 0 0 0.0195,-0.203125 C 116.89745,63.848125 117,61.93588 117,60 v -0.01953 c -6.5e-4,-1.925829 -0.10188,-3.82838 -0.28906,-5.705078 -3.9e-4,-0.0039 -0.002,-0.0078 -0.002,-0.01172 a 57.000004,57.000004 0 0 0 -0.0195,-0.199219 c -0.18582,-1.795555 -0.46195,-3.564509 -0.81054,-5.306641 a 57.000004,57.000004 0 0 0 -0.0254,-0.128906 57.000004,57.000004 0 0 0 -0.0762,-0.371094 c -0.34612,-1.652264 -0.76807,-3.274825 -1.2539,-4.871093 a 57.000004,57.000004 0 0 0 -0.0879,-0.289063 57.000004,57.000004 0 0 0 -0.1211,-0.384765 c -0.49376,-1.552429 -1.05189,-3.076783 -1.67187,-4.56836 a 57.000004,57.000004 0 0 0 -0.17188,-0.410156 57.000004,57.000004 0 0 0 -0.10547,-0.244141 c -0.64681,-1.502595 -1.35205,-2.973715 -2.12109,-4.40625 a 57.000004,57.000004 0 0 0 -0.25,-0.46289 c -0.82136,-1.496568 -1.70435,-2.954246 -2.65234,-4.365235 -8.1e-4,-0.0012 -0.001,-0.0027 -0.002,-0.0039 a 57.000004,57.000004 0 0 0 -0.16211,-0.240234 c -0.98704,-1.452877 -2.03687,-2.860204 -3.15039,-4.212891 a 57.000004,57.000004 0 0 0 -0.082,-0.09961 c -1.14775,-1.387883 -2.35873,-2.721404 -3.63086,-3.994141 -0.007,-0.0068 -0.0146,-0.01269 -0.0215,-0.01953 -1.270788,-1.270111 -2.600751,-2.480823 -3.986329,-3.626953 -0.005,-0.0041 -0.01063,-0.0076 -0.01563,-0.01172 a 57.000004,57.000004 0 0 0 -0.08203,-0.06836 C 94.8546,14.863284 93.44492,13.812658 91.990151,12.824223 a 57.000004,57.000004 0 0 0 -0.246093,-0.166016 c -0.0058,-0.0039 -0.01175,-0.0078 -0.01758,-0.01172 -1.396827,-0.937733 -2.839652,-1.811301 -4.320312,-2.625 -0.0064,-0.0035 -0.01316,-0.0063 -0.01953,-0.0098 A 57.000004,57.000004 0 0 0 86.929688,9.7636719 C 85.493302,8.9920517 84.018576,8.2834718 82.511719,7.6347656 A 57.000004,57.000004 0 0 0 82.248047,7.5214844 57.000004,57.000004 0 0 0 81.839844,7.3515625 C 80.351272,6.733338 78.830397,6.1761213 77.28125,5.6835938 a 57.000004,57.000004 0 0 0 -0.396484,-0.125 57.000004,57.000004 0 0 0 -0.261719,-0.080078 C 75.025096,4.9918668 73.400178,4.5712443 71.746094,4.2246094 A 57.000004,57.000004 0 0 0 71.351562,4.1425781 57.000004,57.000004 0 0 0 71.234375,4.1191406 C 69.495386,3.7714328 67.72971,3.4960849 65.9375,3.3105469 A 57.000004,57.000004 0 0 0 65.734375,3.2910156 C 63.848125,3.1025507 61.93588,3 60,3 h -0.01953 z"
         transform="translate(580,452)" />
      <path
         id="path22"
         style="fill:#52d9ff;fill-opacity:1;stroke:#298199;stroke-width:12.4391;stroke-linejoin:round;stroke-miterlimit:4;stroke-dasharray:none;stroke-opacity:1;paint-order:markers stroke fill"
         d="m 640,559.26217 a 47.262176,47.262176 0 0 1 -0.52633,-0.003 47.262176,47.262176 0 0 1 -0.52632,-0.008 47.262176,47.262176 0 0 1 -0.52632,-0.0146 47.262176,47.262176 0 0 1 -0.52633,-0.0211 47.262176,47.262176 0 0 1 -0.5247,-0.0259 47.262176,47.262176 0 0 1 -0.52632,-0.0324 47.262176,47.262176 0 0 1 -0.52471,-0.0389 47.262176,47.262176 0 0 1 -0.5247,-0.0437 47.262176,47.262176 0 0 1 -0.5247,-0.0502 47.262176,47.262176 0 0 1 -0.52309,-0.0551 47.262176,47.262176 0 0 1 -0.52308,-0.0615 47.262176,47.262176 0 0 1 -0.52146,-0.0664 47.262176,47.262176 0 0 1 -0.52147,-0.0729 47.262176,47.262176 0 0 1 -0.51984,-0.0794 47.262176,47.262176 0 0 1 -0.51985,-0.0842 47.262176,47.262176 0 0 1 -0.51823,-0.0907 47.262176,47.262176 0 0 1 -0.51822,-0.0972 47.262176,47.262176 0 0 1 -0.51661,-0.10203 47.262176,47.262176 0 0 1 -0.51498,-0.10687 47.262176,47.262176 0 0 1 -0.51337,-0.11337 47.262176,47.262176 0 0 1 -0.51337,-0.11984 47.262176,47.262176 0 0 1 -0.51175,-0.12469 47.262176,47.262176 0 0 1 -0.51012,-0.12957 47.262176,47.262176 0 0 1 -0.50851,-0.13603 47.262176,47.262176 0 0 1 -0.50689,-0.14251 47.262176,47.262176 0 0 1 -0.50527,-0.14737 47.262176,47.262176 0 0 1 -0.50365,-0.15385 47.262176,47.262176 0 0 1 -0.50203,-0.15871 47.262176,47.262176 0 0 1 -0.4988,-0.16356 47.262176,47.262176 0 0 1 -0.49879,-0.17004 47.262176,47.262176 0 0 1 -0.49717,-0.1749 47.262176,47.262176 0 0 1 -0.49393,-0.18138 47.262176,47.262176 0 0 1 -0.49232,-0.18624 47.262176,47.262176 0 0 1 -0.48907,-0.19271 47.262176,47.262176 0 0 1 -0.48908,-0.19758 47.262176,47.262176 0 0 1 -0.48584,-0.20243 47.262176,47.262176 0 0 1 -0.48259,-0.20729 47.262176,47.262176 0 0 1 -0.48098,-0.21377 47.262176,47.262176 0 0 1 -0.47936,-0.21863 47.262176,47.262176 0 0 1 -0.47612,-0.2251 47.262176,47.262176 0 0 1 -0.4745,-0.22834 47.262176,47.262176 0 0 1 -0.47126,-0.23483 47.262176,47.262176 0 0 1 -0.46802,-0.24129 47.262176,47.262176 0 0 1 -0.46641,-0.24454 47.262176,47.262176 0 0 1 -0.46154,-0.25102 47.262176,47.262176 0 0 1 -0.46155,-0.25425 47.262176,47.262176 0 0 1 -0.45668,-0.26073 47.262176,47.262176 0 0 1 -0.45507,-0.26559 47.262176,47.262176 0 0 1 -0.45021,-0.27045 47.262176,47.262176 0 0 1 -0.44859,-0.27693 47.262176,47.262176 0 0 1 -0.44535,-0.28016 47.262176,47.262176 0 0 1 -0.44211,-0.28503 47.262176,47.262176 0 0 1 -0.43887,-0.2915 47.262176,47.262176 0 0 1 -0.43563,-0.29474 47.262176,47.262176 0 0 1 -0.4324,-0.30122 47.262176,47.262176 0 0 1 -0.42915,-0.30446 47.262176,47.262176 0 0 1 -0.42592,-0.30931 47.262176,47.262176 0 0 1 -0.42268,-0.3158 47.262176,47.262176 0 0 1 -0.41782,-0.31903 47.262176,47.262176 0 0 1 -0.41458,-0.32389 47.262176,47.262176 0 0 1 -0.41134,-0.32875 47.262176,47.262176 0 0 1 -0.4081,-0.33199 47.262176,47.262176 0 0 1 -0.40487,-0.33847 47.262176,47.262176 0 0 1 -0.4,-0.3417 47.262176,47.262176 0 0 1 -0.39515,-0.34657 47.262176,47.262176 0 0 1 -0.39353,-0.3498 47.262176,47.262176 0 0 1 -0.38867,-0.35628 47.262176,47.262176 0 0 1 -0.38381,-0.35951 47.262176,47.262176 0 0 1 -0.38057,-0.36276 47.262176,47.262176 0 0 1 -0.37571,-0.36923 47.262176,47.262176 0 0 1 -0.37248,-0.37086 47.262176,47.262176 0 0 1 -0.36923,-0.37734 47.262176,47.262176 0 0 1 -0.36276,-0.38057 47.262176,47.262176 0 0 1 -0.35952,-0.38381 47.262176,47.262176 0 0 1 -0.35628,-0.38867 47.262176,47.262176 0 0 1 -0.35142,-0.39191 47.262176,47.262176 0 0 1 -0.34656,-0.39676 47.262176,47.262176 0 0 1 -0.34171,-0.40001 47.262176,47.262176 0 0 1 -0.33685,-0.40324 47.262176,47.262176 0 0 1 -0.3336,-0.4081 47.262176,47.262176 0 0 1 -0.32875,-0.41135 47.262176,47.262176 0 0 1 -0.32389,-0.41458 47.262176,47.262176 0 0 1 -0.31904,-0.41782 47.262176,47.262176 0 0 1 -0.31579,-0.42267 47.262176,47.262176 0 0 1 -0.30932,-0.42592 47.262176,47.262176 0 0 1 -0.30445,-0.42754 47.262176,47.262176 0 0 1 -0.30122,-0.43239 47.262176,47.262176 0 0 1 -0.29474,-0.43563 47.262176,47.262176 0 0 1 -0.2915,-0.43888 47.262176,47.262176 0 0 1 -0.28503,-0.44211 47.262176,47.262176 0 0 1 -0.28178,-0.44535 47.262176,47.262176 0 0 1 -0.27531,-0.44835 47.262176,47.262176 0 0 1 -0.27207,-0.45182 47.262176,47.262176 0 0 1 -0.26559,-0.45345 47.262176,47.262176 0 0 1 -0.26073,-0.45831 47.262176,47.262176 0 0 1 -0.25588,-0.45992 47.262176,47.262176 0 0 1 -0.24939,-0.46317 47.262176,47.262176 0 0 1 -0.24616,-0.46478 47.262176,47.262176 0 0 1 -0.23968,-0.46802 47.262176,47.262176 0 0 1 -0.23482,-0.47126 47.262176,47.262176 0 0 1 -0.22996,-0.4745 47.262176,47.262176 0 0 1 -0.22349,-0.47612 47.262176,47.262176 0 0 1 -0.22024,-0.47774 47.262176,47.262176 0 0 1 -0.21377,-0.48098 47.262176,47.262176 0 0 1 -0.20729,-0.48422 47.262176,47.262176 0 0 1 -0.20405,-0.48583 47.262176,47.262176 0 0 1 -0.19758,-0.48746 47.262176,47.262176 0 0 1 -0.19109,-0.4907 47.262176,47.262176 0 0 1 -0.18624,-0.49231 47.262176,47.262176 0 0 1 -0.18138,-0.49393 47.262176,47.262176 0 0 1 -0.17652,-0.49556 47.262176,47.262176 0 0 1 -0.17004,-0.49879 47.262176,47.262176 0 0 1 -0.16357,-0.50041 47.262176,47.262176 0 0 1 -0.1587,-0.50203 47.262176,47.262176 0 0 1 -0.15385,-0.50365 47.262176,47.262176 0 0 1 -0.14737,-0.50527 47.262176,47.262176 0 0 1 -0.14251,-0.50689 47.262176,47.262176 0 0 1 -0.13604,-0.50851 47.262176,47.262176 0 0 1 -0.13117,-0.50851 47.262176,47.262176 0 0 1 -0.1247,-0.51175 47.262176,47.262176 0 0 1 -0.11984,-0.51336 47.262176,47.262176 0 0 1 -0.11336,-0.51337 47.262176,47.262176 0 0 1 -0.10689,-0.51499 47.262176,47.262176 0 0 1 -0.10364,-0.5166 47.262176,47.262176 0 0 1 -0.0956,-0.51823 47.262176,47.262176 0 0 1 -0.0907,-0.51823 47.262176,47.262176 0 0 1 -0.0842,-0.51984 47.262176,47.262176 0 0 1 -0.0793,-0.51985 47.262176,47.262176 0 0 1 -0.0729,-0.52146 47.262176,47.262176 0 0 1 -0.068,-0.52146 47.262176,47.262176 0 0 1 -0.0615,-0.52309 47.262176,47.262176 0 0 1 -0.0551,-0.52308 47.262176,47.262176 0 0 1 -0.0502,-0.52471 47.262176,47.262176 0 0 1 -0.0453,-0.5247 47.262176,47.262176 0 0 1 -0.0372,-0.5247 47.262176,47.262176 0 0 1 -0.0324,-0.52633 47.262176,47.262176 0 0 1 -0.0275,-0.5247 47.262176,47.262176 0 0 1 -0.0194,-0.52632 47.262176,47.262176 0 0 1 -0.0162,-0.52632 47.262176,47.262176 0 0 1 -0.008,-0.52633 47.262176,47.262176 0 0 1 -0.003,-0.52632 v 47.24598 z" />
      <path
         id="path16"
         style="fill:#52d9ff;fill-opacity:1;stroke:#298199;stroke-width:12.4391;stroke-linejoin:round;stroke-miterlimit:4;stroke-dasharray:none;stroke-opacity:1;paint-order:markers stroke fill"
         d="M 592.73782,464.73782 V 512 a 47.262176,47.262176 0 0 1 0.003,-0.52633 47.262176,47.262176 0 0 1 0.008,-0.52632 47.262176,47.262176 0 0 1 0.0146,-0.52632 47.262176,47.262176 0 0 1 0.0211,-0.52633 47.262176,47.262176 0 0 1 0.0259,-0.5247 47.262176,47.262176 0 0 1 0.0324,-0.52632 47.262176,47.262176 0 0 1 0.0389,-0.52471 47.262176,47.262176 0 0 1 0.0437,-0.5247 47.262176,47.262176 0 0 1 0.0502,-0.5247 47.262176,47.262176 0 0 1 0.0551,-0.52309 47.262176,47.262176 0 0 1 0.0615,-0.52308 47.262176,47.262176 0 0 1 0.0664,-0.52146 47.262176,47.262176 0 0 1 0.0729,-0.52147 47.262176,47.262176 0 0 1 0.0794,-0.51984 47.262176,47.262176 0 0 1 0.0842,-0.51985 47.262176,47.262176 0 0 1 0.0907,-0.51823 47.262176,47.262176 0 0 1 0.0972,-0.51822 47.262176,47.262176 0 0 1 0.10202,-0.51661 47.262176,47.262176 0 0 1 0.10689,-0.51498 47.262176,47.262176 0 0 1 0.11336,-0.51337 47.262176,47.262176 0 0 1 0.11984,-0.51337 47.262176,47.262176 0 0 1 0.12469,-0.51175 47.262176,47.262176 0 0 1 0.12956,-0.51012 47.262176,47.262176 0 0 1 0.13604,-0.50851 47.262176,47.262176 0 0 1 0.14251,-0.50689 47.262176,47.262176 0 0 1 0.14736,-0.50527 47.262176,47.262176 0 0 1 0.15385,-0.50365 47.262176,47.262176 0 0 1 0.15871,-0.50203 47.262176,47.262176 0 0 1 0.16356,-0.4988 47.262176,47.262176 0 0 1 0.17004,-0.49879 47.262176,47.262176 0 0 1 0.1749,-0.49717 47.262176,47.262176 0 0 1 0.18138,-0.49393 47.262176,47.262176 0 0 1 0.18624,-0.49232 47.262176,47.262176 0 0 1 0.19272,-0.48907 47.262176,47.262176 0 0 1 0.19757,-0.48908 47.262176,47.262176 0 0 1 0.20243,-0.48584 47.262176,47.262176 0 0 1 0.20729,-0.48259 47.262176,47.262176 0 0 1 0.21377,-0.48098 47.262176,47.262176 0 0 1 0.21863,-0.47936 47.262176,47.262176 0 0 1 0.2251,-0.47612 47.262176,47.262176 0 0 1 0.22834,-0.4745 47.262176,47.262176 0 0 1 0.23482,-0.47126 47.262176,47.262176 0 0 1 0.2413,-0.46802 47.262176,47.262176 0 0 1 0.24454,-0.46641 47.262176,47.262176 0 0 1 0.25102,-0.46154 47.262176,47.262176 0 0 1 0.25425,-0.46155 47.262176,47.262176 0 0 1 0.26073,-0.45668 47.262176,47.262176 0 0 1 0.26559,-0.45507 47.262176,47.262176 0 0 1 0.27045,-0.45021 47.262176,47.262176 0 0 1 0.27693,-0.44859 47.262176,47.262176 0 0 1 0.28016,-0.44535 47.262176,47.262176 0 0 1 0.28503,-0.44211 47.262176,47.262176 0 0 1 0.2915,-0.43887 47.262176,47.262176 0 0 1 0.29474,-0.43563 47.262176,47.262176 0 0 1 0.30122,-0.4324 47.262176,47.262176 0 0 1 0.30446,-0.42915 47.262176,47.262176 0 0 1 0.30931,-0.42592 47.262176,47.262176 0 0 1 0.3158,-0.42268 47.262176,47.262176 0 0 1 0.31903,-0.41782 47.262176,47.262176 0 0 1 0.32389,-0.41458 47.262176,47.262176 0 0 1 0.32875,-0.41134 47.262176,47.262176 0 0 1 0.33199,-0.4081 47.262176,47.262176 0 0 1 0.33846,-0.40487 47.262176,47.262176 0 0 1 0.34171,-0.4 47.262176,47.262176 0 0 1 0.34656,-0.39515 47.262176,47.262176 0 0 1 0.34981,-0.39353 47.262176,47.262176 0 0 1 0.35628,-0.38867 47.262176,47.262176 0 0 1 0.35951,-0.38381 47.262176,47.262176 0 0 1 0.36276,-0.38057 47.262176,47.262176 0 0 1 0.36924,-0.37571 47.262176,47.262176 0 0 1 0.37085,-0.37248 47.262176,47.262176 0 0 1 0.37734,-0.36923 47.262176,47.262176 0 0 1 0.38057,-0.36276 47.262176,47.262176 0 0 1 0.38381,-0.35952 47.262176,47.262176 0 0 1 0.38867,-0.35628 47.262176,47.262176 0 0 1 0.39191,-0.35142 47.262176,47.262176 0 0 1 0.39676,-0.34656 47.262176,47.262176 0 0 1 0.40001,-0.34171 47.262176,47.262176 0 0 1 0.40324,-0.33685 47.262176,47.262176 0 0 1 0.4081,-0.3336 47.262176,47.262176 0 0 1 0.41135,-0.32875 47.262176,47.262176 0 0 1 0.41458,-0.32389 47.262176,47.262176 0 0 1 0.41782,-0.31904 47.262176,47.262176 0 0 1 0.42267,-0.31579 47.262176,47.262176 0 0 1 0.42592,-0.30932 47.262176,47.262176 0 0 1 0.42754,-0.30445 47.262176,47.262176 0 0 1 0.43239,-0.30122 47.262176,47.262176 0 0 1 0.43563,-0.29474 47.262176,47.262176 0 0 1 0.43888,-0.2915 47.262176,47.262176 0 0 1 0.44211,-0.28503 47.262176,47.262176 0 0 1 0.44535,-0.28178 47.262176,47.262176 0 0 1 0.44859,-0.27531 47.262176,47.262176 0 0 1 0.45182,-0.27207 47.262176,47.262176 0 0 1 0.45345,-0.26559 47.262176,47.262176 0 0 1 0.45831,-0.26073 47.262176,47.262176 0 0 1 0.45992,-0.25588 47.262176,47.262176 0 0 1 0.46317,-0.24939 47.262176,47.262176 0 0 1 0.46478,-0.24616 47.262176,47.262176 0 0 1 0.46802,-0.23968 47.262176,47.262176 0 0 1 0.47126,-0.23482 47.262176,47.262176 0 0 1 0.47451,-0.22996 47.262176,47.262176 0 0 1 0.47612,-0.22349 47.262176,47.262176 0 0 1 0.47773,-0.22024 47.262176,47.262176 0 0 1 0.48098,-0.21377 47.262176,47.262176 0 0 1 0.48422,-0.20729 47.262176,47.262176 0 0 1 0.48584,-0.20405 47.262176,47.262176 0 0 1 0.48745,-0.19758 47.262176,47.262176 0 0 1 0.4907,-0.19109 47.262176,47.262176 0 0 1 0.49231,-0.18624 47.262176,47.262176 0 0 1 0.49393,-0.18138 47.262176,47.262176 0 0 1 0.49556,-0.17652 47.262176,47.262176 0 0 1 0.49879,-0.17004 47.262176,47.262176 0 0 1 0.50041,-0.16357 47.262176,47.262176 0 0 1 0.50203,-0.1587 47.262176,47.262176 0 0 1 0.50365,-0.15385 47.262176,47.262176 0 0 1 0.50527,-0.14737 47.262176,47.262176 0 0 1 0.50689,-0.14251 47.262176,47.262176 0 0 1 0.50851,-0.13604 47.262176,47.262176 0 0 1 0.50851,-0.13117 47.262176,47.262176 0 0 1 0.51175,-0.1247 47.262176,47.262176 0 0 1 0.51336,-0.11984 47.262176,47.262176 0 0 1 0.51337,-0.11336 47.262176,47.262176 0 0 1 0.51499,-0.10689 47.262176,47.262176 0 0 1 0.5166,-0.10364 47.262176,47.262176 0 0 1 0.51823,-0.0955 47.262176,47.262176 0 0 1 0.51823,-0.0907 47.262176,47.262176 0 0 1 0.51984,-0.0842 47.262176,47.262176 0 0 1 0.51985,-0.0793 47.262176,47.262176 0 0 1 0.52146,-0.0729 47.262176,47.262176 0 0 1 0.52147,-0.068 47.262176,47.262176 0 0 1 0.52308,-0.0615 47.262176,47.262176 0 0 1 0.52308,-0.0551 47.262176,47.262176 0 0 1 0.52471,-0.0502 47.262176,47.262176 0 0 1 0.5247,-0.0453 47.262176,47.262176 0 0 1 0.5247,-0.0372 47.262176,47.262176 0 0 1 0.52633,-0.0324 47.262176,47.262176 0 0 1 0.5247,-0.0275 47.262176,47.262176 0 0 1 0.52632,-0.0194 47.262176,47.262176 0 0 1 0.52633,-0.0162 47.262176,47.262176 0 0 1 0.52632,-0.008 47.262176,47.262176 0 0 1 0.52632,-0.003 z" />
      <circle
         style="fill:#52d9ff;fill-opacity:1;stroke:#298199;stroke-width:12.4391;stroke-linecap:round;stroke-linejoin:round;stroke-dasharray:none;stroke-opacity:1;paint-order:markers stroke fill;stop-color:#000000"
         id="path876"
         cx="640"
         cy="512"
         r="37.528091" />
    </g>
  </g>
</svg>
