<?xml version="1.0" encoding="UTF-8" standalone="no"?>
<svg
   version="1.1"
   id="svg10"
   width="120"
   height="120"
   viewBox="0 0 119.99999 120"
   sodipodi:docname="Sponge.svg"
   inkscape:version="1.4.3 (0d15f75042, 2025-12-25)"
   inkscape:export-filename="E:\Arras Images\actualtanks\Sponge Smasher V2.png"
   inkscape:export-xdpi="864"
   inkscape:export-ydpi="864"
   xmlns:inkscape="http://www.inkscape.org/namespaces/inkscape"
   xmlns:sodipodi="http://sodipodi.sourceforge.net/DTD/sodipodi-0.dtd"
   xmlns="http://www.w3.org/2000/svg"
   xmlns:svg="http://www.w3.org/2000/svg"
   xmlns:rdf="http://www.w3.org/1999/02/22-rdf-syntax-ns#"
   xmlns:cc="http://creativecommons.org/ns#"
   xmlns:dc="http://purl.org/dc/elements/1.1/">
  <metadata
     id="metadata16">
    <rdf:RDF>
      <cc:Work
         rdf:about="">
        <dc:format>image/svg+xml</dc:format>
        <dc:type
           rdf:resource="http://purl.org/dc/dcmitype/StillImage" />
      </cc:Work>
    </rdf:RDF>
  </metadata>
  <defs
     id="defs14" />
  <sodipodi:namedview
     pagecolor="#ffffff"
     bordercolor="#666666"
     borderopacity="1"
     objecttolerance="10"
     gridtolerance="10"
     guidetolerance="10"
     inkscape:pageopacity="0"
     inkscape:pageshadow="2"
     inkscape:window-width="1920"
     inkscape:window-height="1008"
     id="namedview12"
     showgrid="false"
     inkscape:zoom="6.7166667"
     inkscape:cx="59.925558"
     inkscape:cy="60"
     inkscape:window-x="0"
     inkscape:window-y="0"
     inkscape:window-maximized="1"
     inkscape:current-layer="g18"
     inkscape:object-nodes="false"
     inkscape:snap-object-midpoints="false"
     inkscape:document-rotation="0"
     inkscape:snap-midpoints="false"
     inkscape:snap-center="false"
     inkscape:snap-intersection-paths="false"
     inkscape:object-paths="false"
     inkscape:snap-smooth-nodes="false"
     inkscape:showpageshadow="2"
     inkscape:pagecheckerboard="0"
     inkscape:deskcolor="#d1d1d1" />
  <g
     inkscape:groupmode="layer"
     inkscape:label="Image"
     id="g18"
     transform="translate(-730.70685,-428.08896)">
    <g
       id="g1"
       style="stroke-width:4.66706;stroke-dasharray:none;paint-order:markers stroke fill"
       transform="matrix(0.90906171,-0.90906171,0.90906171,0.90906171,-334.63245,763.1873)">
      <path
         id="path68"
         style="fill:#ffff99;fill-opacity:1;stroke:#a3a370;stroke-width:4.66706;stroke-linecap:round;stroke-linejoin:round;stroke-dasharray:none;stroke-opacity:1;paint-order:markers stroke fill;stop-color:#000000"
         d="m 50,13.441406 c -3.980522,0 -4.485559,3.02261 -8.615234,3.806641 0.03462,-0.01999 0.0689,-0.04056 0.103515,-0.06055 -0.08462,0.03397 -0.163258,0.05532 -0.246093,0.08594 -0.09412,0.01635 -0.179439,0.03875 -0.277344,0.05273 l -0.201172,0.117187 c -3.757944,1.157138 -5.688527,-1.040208 -9.042969,0.896485 -3.358716,1.939151 -2.416023,4.713504 -5.310547,7.392578 l -0.1875,0.107422 c -0.05867,0.07475 -0.118924,0.134453 -0.177734,0.205078 -0.07062,0.05881 -0.130332,0.119063 -0.205078,0.177734 0.03511,-0.02027 0.07036,-0.04028 0.105468,-0.06055 -2.744246,3.18638 -5.614873,2.110773 -7.605468,5.558594 -1.938056,3.356802 0.262292,5.287608 -0.900391,9.050781 l -0.113281,0.19336 c -0.01399,0.0979 -0.03639,0.183227 -0.05273,0.277344 -0.03061,0.08284 -0.05197,0.161469 -0.08594,0.246093 0.01999,-0.03462 0.04056,-0.0689 0.06055,-0.103515 -0.784031,4.129666 -3.806641,4.634712 -3.806641,8.615234 0,3.881002 2.877336,4.451196 3.748047,8.304688 l -0.002,0.207031 c 0.03397,0.08462 0.05532,0.163259 0.08594,0.246093 0.01635,0.09412 0.03875,0.179439 0.05273,0.277344 V 58.90625 c 1.39257,3.974468 -0.978094,5.923216 1.013672,9.373047 1.940685,3.361372 4.717389,2.415461 7.398437,5.318359 l 0.101563,0.179688 c 0.07475,0.05867 0.134453,0.118924 0.205078,0.177734 0.05881,0.07062 0.119062,0.130332 0.177734,0.205078 l -0.06055,-0.105468 c 3.186388,2.744253 2.110773,5.614873 5.558594,7.605468 3.356802,1.938056 5.287607,-0.262293 9.050781,0.900391 l 0.19336,0.113281 c 0.0979,0.01399 0.183227,0.03639 0.277344,0.05273 0.08284,0.03061 0.161469,0.05197 0.246093,0.08594 l -0.103515,-0.06055 c 4.129674,0.784031 4.634712,3.806641 8.615234,3.806641 3.881002,0 4.451194,-2.877337 8.304688,-3.748047 l 0.207031,0.002 c 0.08462,-0.03397 0.163259,-0.05532 0.246093,-0.08594 0.09412,-0.01635 0.179439,-0.03875 0.277344,-0.05273 H 58.90625 c 3.974468,-1.392579 5.923216,0.978094 9.373047,-1.013672 3.361372,-1.940685 2.41546,-4.717398 5.318359,-7.398437 L 73.777344,74.1602 c 0.05899,-0.07515 0.118603,-0.136043 0.177734,-0.207031 0.07031,-0.05853 0.130683,-0.117385 0.205078,-0.175781 l -0.107422,0.0625 c 2.744788,-3.188954 5.616393,-2.111976 7.607422,-5.560547 1.938056,-3.356802 -0.262301,-5.287615 0.900391,-9.050781 l 0.113281,-0.19336 c 0.01399,-0.0979 0.03639,-0.183227 0.05273,-0.277344 0.03061,-0.08284 0.05197,-0.161469 0.08594,-0.246093 l -0.06055,0.103515 C 83.535975,54.485551 86.558594,53.980522 86.558594,50 c 0,-3.881002 -2.877345,-4.451203 -3.748047,-8.304688 l 0.002,-0.207031 c -0.03397,-0.08462 -0.05532,-0.163258 -0.08594,-0.246093 -0.01635,-0.09412 -0.03875,-0.179439 -0.05273,-0.277344 v 0.128906 c -1.392588,-3.974477 0.978094,-5.923216 -1.013672,-9.373047 -1.990828,-3.448224 -4.86094,-2.372792 -7.605468,-5.560547 l 0.105468,0.0625 c -0.07439,-0.0584 -0.134766,-0.117248 -0.205078,-0.175781 -0.05913,-0.07099 -0.118743,-0.131878 -0.177734,-0.207031 l -0.1875,-0.107422 c -2.894539,-2.67908 -1.951831,-5.453427 -5.310547,-7.392578 -3.354442,-1.936693 -5.285031,0.260655 -9.042969,-0.896485 l -0.201172,-0.117187 c -0.0979,-0.01399 -0.183227,-0.03639 -0.277344,-0.05273 -0.08284,-0.03061 -0.161469,-0.05197 -0.246093,-0.08594 l 0.103515,0.06055 C 54.485568,16.464016 53.980522,13.441406 50,13.441406 Z M 50,21.5 A 28.5,28.5 0 0 1 78.5,50 28.5,28.5 0 0 1 50,78.5 28.5,28.5 0 0 1 21.5,50 28.5,28.5 0 0 1 50,21.5 Z"
         transform="translate(720.26544,417.64755)" />
      <path
         id="path9"
         style="fill:#00b0e1;fill-opacity:1;stroke:#0083a8;stroke-width:4.66706;stroke-linecap:round;stroke-linejoin:round;stroke-dasharray:none;stroke-opacity:1;paint-order:markers stroke fill;stop-color:#000000"
         d="M 38.058594,9.5585938 A 28.5,28.5 0 0 0 9.5585938,38.058594 a 28.5,28.5 0 0 0 28.5000002,28.5 28.5,28.5 0 0 0 28.5,-28.5 28.5,28.5 0 0 0 -28.5,-28.5000002 z M 32.15625,14.478516 a 2.9200723,2.9200723 0 0 1 2.919922,2.919922 2.9200723,2.9200723 0 0 1 -2.919922,2.919921 2.9200723,2.9200723 0 0 1 -2.921875,-2.919921 2.9200723,2.9200723 0 0 1 2.921875,-2.919922 z m 13.970703,0.6875 a 5.2812967,5.2812967 0 0 1 5.28125,5.28125 5.2812967,5.2812967 0 0 1 -5.28125,5.28125 5.2812967,5.2812967 0 0 1 -5.28125,-5.28125 5.2812967,5.2812967 0 0 1 5.28125,-5.28125 z m -24.203125,9.839843 a 5.2812967,5.2812967 0 0 1 5.28125,5.28125 5.2812967,5.2812967 0 0 1 -5.28125,5.28125 5.2812967,5.2812967 0 0 1 -5.28125,-5.28125 5.2812967,5.2812967 0 0 1 5.28125,-5.28125 z m 34.041016,0.785157 a 2.9200723,2.9200723 0 0 1 2.919922,2.921875 2.9200723,2.9200723 0 0 1 -2.919922,2.919921 2.9200723,2.9200723 0 0 1 -2.919922,-2.919921 2.9200723,2.9200723 0 0 1 2.919922,-2.921875 z m -16.626953,3.248046 a 2.9200723,2.9200723 0 0 1 2.919921,2.919922 2.9200723,2.9200723 0 0 1 -2.919921,2.919922 2.9200723,2.9200723 0 0 1 -2.919922,-2.919922 2.9200723,2.9200723 0 0 1 2.919922,-2.919922 z m -0.394532,10.527344 a 5.2812967,5.2812967 0 0 1 5.28125,5.28125 5.2812967,5.2812967 0 0 1 -5.28125,5.28125 5.2812967,5.2812967 0 0 1 -5.28125,-5.28125 5.2812967,5.2812967 0 0 1 5.28125,-5.28125 z M 22.611328,42.8125 a 2.9200723,2.9200723 0 0 1 2.919922,2.919922 2.9200723,2.9200723 0 0 1 -2.919922,2.919922 2.9200723,2.9200723 0 0 1 -2.919922,-2.919922 2.9200723,2.9200723 0 0 1 2.919922,-2.919922 z m 31.28711,2.753906 a 2.9200723,2.9200723 0 0 1 2.919921,2.921875 2.9200723,2.9200723 0 0 1 -2.919921,2.919922 2.9200723,2.9200723 0 0 1 -2.919922,-2.919922 2.9200723,2.9200723 0 0 1 2.919922,-2.921875 z M 37.173828,56.09375 a 2.9200723,2.9200723 0 0 1 2.919922,2.919922 2.9200723,2.9200723 0 0 1 -2.919922,2.919922 2.9200723,2.9200723 0 0 1 -2.921875,-2.919922 2.9200723,2.9200723 0 0 1 2.921875,-2.919922 z"
         transform="translate(732.20685,429.58896)" />
    </g>
  </g>
</svg>
