<?xml version="1.0" encoding="UTF-8" standalone="no"?>
<svg
   version="1.1"
   id="svg870"
   width="216"
   height="216"
   viewBox="0 0 216 215.99999"
   sodipodi:docname="Truck.svg"
   inkscape:version="1.4.3 (0d15f75042, 2025-12-25)"
   inkscape:export-filename="D:\Arras Images\actualtanks\Truck.png"
   inkscape:export-xdpi="864"
   inkscape:export-ydpi="864"
   xmlns:inkscape="http://www.inkscape.org/namespaces/inkscape"
   xmlns:sodipodi="http://sodipodi.sourceforge.net/DTD/sodipodi-0.dtd"
   xmlns="http://www.w3.org/2000/svg"
   xmlns:svg="http://www.w3.org/2000/svg"
   xmlns:rdf="http://www.w3.org/1999/02/22-rdf-syntax-ns#"
   xmlns:cc="http://creativecommons.org/ns#"
   xmlns:dc="http://purl.org/dc/elements/1.1/">
  <metadata
     id="metadata876">
    <rdf:RDF>
      <cc:Work
         rdf:about="">
        <dc:format>image/svg+xml</dc:format>
        <dc:type
           rdf:resource="http://purl.org/dc/dcmitype/StillImage" />
      </cc:Work>
    </rdf:RDF>
  </metadata>
  <defs
     id="defs874" />
  <sodipodi:namedview
     inkscape:snap-object-midpoints="true"
     inkscape:document-rotation="0"
     pagecolor="#ffffff"
     bordercolor="#666666"
     borderopacity="1"
     objecttolerance="10"
     gridtolerance="10"
     guidetolerance="10"
     inkscape:pageopacity="0"
     inkscape:pageshadow="2"
     inkscape:window-width="1920"
     inkscape:window-height="1008"
     id="namedview872"
     showgrid="false"
     inkscape:zoom="3.7314815"
     inkscape:cx="107.866"
     inkscape:cy="108"
     inkscape:window-x="0"
     inkscape:window-y="0"
     inkscape:window-maximized="1"
     inkscape:current-layer="g878"
     inkscape:object-nodes="false"
     inkscape:snap-center="false"
     inkscape:snap-smooth-nodes="false"
     inkscape:snap-midpoints="false"
     inkscape:showpageshadow="2"
     inkscape:pagecheckerboard="0"
     inkscape:deskcolor="#d1d1d1"
     showguides="false" />
  <g
     inkscape:groupmode="layer"
     inkscape:label="Image"
     id="g878"
     transform="translate(-238,-452)">
    <g
       id="g1"
       transform="matrix(0.3480892,-0.3480892,0.3480892,0.3480892,-3.4390098,552.99567)"
       style="stroke-width:12.1884;stroke-dasharray:none;paint-order:markers stroke fill">
      <rect
         style="fill:#999999;fill-opacity:1;stroke:#757575;stroke-width:12.1884;stroke-linejoin:round;stroke-dasharray:none;stroke-opacity:1;paint-order:markers stroke fill"
         id="rect897"
         width="49.5"
         height="49"
         x="692.36523"
         y="487.5" />
      <path
         id="path46"
         style="fill:#00b0e1;fill-opacity:1;stroke:#298199;stroke-width:12.1884;stroke-linejoin:round;stroke-miterlimit:4;stroke-dasharray:none;stroke-opacity:1;paint-order:markers stroke fill"
         d="M 60,3 C 58.06412,3 56.151955,3.1026856 54.265625,3.2910156 A 57.000004,57.000004 0 0 0 54.0625,3.3105469 c -1.79221,0.18553 -3.557885,0.4608837 -5.296875,0.8085937 a 57.000004,57.000004 0 0 0 -0.117187,0.023437 57.000004,57.000004 0 0 0 -0.394532,0.082031 c -1.65409,0.34663 -3.279003,0.7672562 -4.876953,1.2539062 a 57.000004,57.000004 0 0 0 -0.261719,0.080078 57.000004,57.000004 0 0 0 -0.396484,0.125 c -1.54915,0.49253 -3.070024,1.0497487 -4.558594,1.6679687 a 57.000004,57.000004 0 0 0 -0.408203,0.1699219 57.000004,57.000004 0 0 0 -0.263672,0.1132812 c -1.50686,0.6487 -2.981578,1.3572863 -4.417969,2.1289063 a 57.000004,57.000004 0 0 0 -0.457031,0.2480471 c -0.0063,0.004 -0.01353,0.0068 -0.01953,0.0098 -1.48066,0.8137 -2.923482,1.68726 -4.320312,2.625 -0.0058,0.0037 -0.01158,0.0077 -0.01758,0.01172 a 57.000004,57.000004 0 0 0 -0.246093,0.166016 c -1.45477,0.98844 -2.86445,2.039057 -4.21875,3.154297 a 57.000004,57.000004 0 0 0 -0.08203,0.06836 c -0.005,0.0037 -0.01063,0.0077 -0.01563,0.01172 -1.38558,1.14613 -2.715538,2.356843 -3.986328,3.626953 -0.0069,0.0068 -0.01448,0.01253 -0.02148,0.01953 -1.27213,1.27274 -2.483109,2.606261 -3.630859,3.994141 a 57.000004,57.000004 0 0 0 -0.08203,0.09961 c -1.11352,1.35269 -2.16335,2.760011 -3.15039,4.212891 a 57.000004,57.000004 0 0 0 -0.16211,0.240234 c -10e-4,0.001 -0.0011,0.0029 -0.002,0.0039 -0.94799,1.41099 -1.830984,2.868675 -2.652344,4.365235 a 57.000004,57.000004 0 0 0 -0.2499996,0.46289 c -0.76904,1.43254 -1.4742838,2.90366 -2.1210938,4.40625 a 57.000004,57.000004 0 0 0 -0.1054687,0.244141 57.000004,57.000004 0 0 0 -0.171875,0.410156 c -0.61998,1.49158 -1.178115,3.01593 -1.671875,4.56836 a 57.000004,57.000004 0 0 0 -0.1210938,0.384765 57.000004,57.000004 0 0 0 -0.087891,0.289063 c -0.48583,1.59627 -0.9077862,3.218833 -1.2539063,4.871093 a 57.000004,57.000004 0 0 0 -0.076172,0.371094 57.000004,57.000004 0 0 0 -0.025391,0.128906 c -0.3485901,1.742131 -0.6247269,3.511091 -0.8105469,5.306641 a 57.000004,57.000004 0 0 0 -0.019531,0.199219 c 0,0.0037 -0.00156,0.0077 -0.00195,0.01172 C 3.1018825,56.152091 3.00065,58.054639 3,59.980469 V 60 c 0,1.93588 0.1027456,3.848135 0.2910156,5.734375 a 57.000004,57.000004 0 0 0 0.019531,0.203125 c 0.18553,1.79221 0.4608837,3.557885 0.8085937,5.296875 a 57.000004,57.000004 0 0 0 0.023437,0.117187 57.000004,57.000004 0 0 0 0.082031,0.394532 c 0.34663,1.65408 0.7672562,3.279003 1.2539062,4.876953 a 57.000004,57.000004 0 0 0 0.080078,0.261719 57.000004,57.000004 0 0 0 0.125,0.396484 c 0.4925299,1.54914 1.0497487,3.070024 1.6679687,4.558594 a 57.000004,57.000004 0 0 0 0.1699219,0.408203 57.000004,57.000004 0 0 0 0.1132812,0.263672 c 0.6487,1.50685 1.3572863,2.981579 2.1289063,4.417969 a 57.000004,57.000004 0 0 0 0.2480474,0.457031 c 0.004,0.0063 0.0058,0.01353 0.0098,0.01953 0.8137,1.48066 1.68727,2.923482 2.625,4.320312 0.0037,0.0058 0.0077,0.01158 0.01172,0.01758 a 57.000004,57.000004 0 0 0 0.166016,0.246093 c 0.98844,1.45477 2.039057,2.86445 3.154297,4.21875 a 57.000004,57.000004 0 0 0 0.06836,0.08203 c 0.0037,0.005 0.0077,0.01063 0.01172,0.01563 1.14613,1.38558 2.356833,2.715538 3.626953,3.986326 0.0068,0.007 0.01253,0.0145 0.01953,0.0215 1.27274,1.27213 2.606261,2.48311 3.994141,3.63086 a 57.000004,57.000004 0 0 0 0.09961,0.082 c 1.35269,1.11352 2.760021,2.16335 4.212891,3.15039 a 57.000004,57.000004 0 0 0 0.240234,0.16211 c 0.001,10e-4 0.0029,10e-4 0.0039,0.002 1.41099,0.94799 2.868675,1.83098 4.365235,2.65234 a 57.000004,57.000004 0 0 0 0.46289,0.25 c 1.43254,0.76904 2.90366,1.47428 4.40625,2.12109 a 57.000004,57.000004 0 0 0 0.244141,0.10547 57.000004,57.000004 0 0 0 0.410156,0.17188 c 1.49158,0.61998 3.01593,1.17811 4.56836,1.67187 a 57.000004,57.000004 0 0 0 0.384765,0.1211 57.000004,57.000004 0 0 0 0.289063,0.0879 c 1.59627,0.48583 3.218833,0.90778 4.871093,1.2539 a 57.000004,57.000004 0 0 0 0.371094,0.0762 57.000004,57.000004 0 0 0 0.128906,0.0254 c 1.742131,0.34859 3.511091,0.62472 5.306641,0.81054 a 57.000004,57.000004 0 0 0 0.199219,0.0195 c 0.0037,0 0.0077,0.002 0.01172,0.002 1.8767,0.18718 3.779248,0.28841 5.705078,0.28906 H 60 117 v 0.01 H 231 345 V 117 h 57 0.0195 c 1.92583,-6.5e-4 3.82838,-0.10188 5.70508,-0.28906 0.004,-3.9e-4 0.008,-0.002 0.0117,-0.002 a 57.000004,57.000004 0 0 0 0.19922,-0.0195 c 1.79555,-0.18582 3.56451,-0.46195 5.30664,-0.81054 a 57.000004,57.000004 0 0 0 0.1289,-0.0254 57.000004,57.000004 0 0 0 0.3711,-0.0762 c 1.65226,-0.34612 3.27482,-0.76807 4.87109,-1.2539 a 57.000004,57.000004 0 0 0 0.28906,-0.0879 57.000004,57.000004 0 0 0 0.38477,-0.1211 c 1.55243,-0.49376 3.07678,-1.05189 4.56836,-1.67187 a 57.000004,57.000004 0 0 0 0.41015,-0.17188 57.000004,57.000004 0 0 0 0.24415,-0.10547 c 1.50259,-0.64681 2.97371,-1.35205 4.40625,-2.12109 a 57.000004,57.000004 0 0 0 0.46289,-0.25 c 1.49656,-0.82136 2.95424,-1.70435 4.36523,-2.65234 10e-4,-8.1e-4 0.003,-9.6e-4 0.004,-0.002 a 57.000004,57.000004 0 0 0 0.24023,-0.16211 c 1.45288,-0.98704 2.8602,-2.03687 4.21289,-3.15039 a 57.000004,57.000004 0 0 0 0.0996,-0.082 c 1.38788,-1.14775 2.7214,-2.35873 3.99414,-3.63086 0.007,-0.007 0.0127,-0.0146 0.0195,-0.0215 1.27012,-1.270789 2.48083,-2.600751 3.62696,-3.986329 0.004,-0.005 0.008,-0.01063 0.0117,-0.01563 a 57.000004,57.000004 0 0 0 0.0684,-0.08203 c 1.11524,-1.354301 2.16586,-2.763981 3.1543,-4.21875 a 57.000004,57.000004 0 0 0 0.16602,-0.246093 c 0.004,-0.0058 0.008,-0.01175 0.0117,-0.01758 0.93773,-1.396827 1.8113,-2.839652 2.625,-4.320312 0.004,-0.0064 0.006,-0.01316 0.01,-0.01953 a 57.000004,57.000004 0 0 0 0.24805,-0.457031 c 0.77162,-1.436386 1.4802,-2.911112 2.1289,-4.417969 a 57.000004,57.000004 0 0 0 0.11329,-0.263672 57.000004,57.000004 0 0 0 0.16992,-0.408203 c 0.61822,-1.488572 1.17544,-3.009447 1.66797,-4.558594 a 57.000004,57.000004 0 0 0 0.125,-0.396484 57.000004,57.000004 0 0 0 0.0801,-0.261719 c 0.48665,-1.597951 0.90728,-3.222869 1.25391,-4.876953 a 57.000004,57.000004 0 0 0 0.082,-0.394532 57.000004,57.000004 0 0 0 0.0234,-0.117187 c 0.34771,-1.738989 0.62306,-3.504665 0.80859,-5.296875 a 57.000004,57.000004 0 0 0 0.0195,-0.203125 C 458.89729,63.848208 459,61.93588 459,60 v -0.01953 c -6.5e-4,-1.925829 -0.10188,-3.82838 -0.28906,-5.705078 -3.9e-4,-0.0039 -0.002,-0.0078 -0.002,-0.01172 a 57.000004,57.000004 0 0 0 -0.0195,-0.199219 c -0.18582,-1.795555 -0.46195,-3.564509 -0.81054,-5.306641 a 57.000004,57.000004 0 0 0 -0.0254,-0.128906 57.000004,57.000004 0 0 0 -0.0762,-0.371094 c -0.34612,-1.652264 -0.76807,-3.274825 -1.2539,-4.871093 a 57.000004,57.000004 0 0 0 -0.0879,-0.289063 57.000004,57.000004 0 0 0 -0.1211,-0.384765 c -0.49376,-1.552429 -1.05189,-3.076783 -1.67187,-4.56836 a 57.000004,57.000004 0 0 0 -0.17188,-0.410156 57.000004,57.000004 0 0 0 -0.10547,-0.244141 c -0.64681,-1.502595 -1.35205,-2.973715 -2.12109,-4.40625 a 57.000004,57.000004 0 0 0 -0.25,-0.46289 c -0.82136,-1.496568 -1.70435,-2.954246 -2.65234,-4.365235 -8.1e-4,-0.0012 -9.6e-4,-0.0027 -0.002,-0.0039 a 57.000004,57.000004 0 0 0 -0.16211,-0.240234 c -0.98704,-1.452877 -2.03687,-2.860204 -3.15039,-4.212891 a 57.000004,57.000004 0 0 0 -0.082,-0.09961 c -1.14775,-1.387883 -2.35873,-2.721404 -3.63086,-3.994141 -0.007,-0.0068 -0.0146,-0.01269 -0.0215,-0.01953 -1.27079,-1.270111 -2.60075,-2.480823 -3.98633,-3.626953 -0.005,-0.0041 -0.0106,-0.0076 -0.0156,-0.01172 a 57.000004,57.000004 0 0 0 -0.082,-0.06836 c -1.3543,-1.115236 -2.76398,-2.165862 -4.21875,-3.154297 a 57.000004,57.000004 0 0 0 -0.24609,-0.166016 c -0.006,-0.0039 -0.0118,-0.0078 -0.0176,-0.01172 -1.39682,-0.937733 -2.83965,-1.811301 -4.32031,-2.625 -0.006,-0.0035 -0.0132,-0.0063 -0.0195,-0.0098 A 57.000004,57.000004 0 0 0 428.92969,9.7636719 C 427.4933,8.9920517 426.01858,8.2834718 424.51172,7.6347656 A 57.000004,57.000004 0 0 0 424.24805,7.5214844 57.000004,57.000004 0 0 0 423.83984,7.3515625 C 422.35127,6.733338 420.8304,6.1761213 419.28125,5.6835938 a 57.000004,57.000004 0 0 0 -0.39648,-0.125 57.000004,57.000004 0 0 0 -0.26172,-0.080078 c -1.59795,-0.486649 -3.22287,-0.9072713 -4.87696,-1.2539062 a 57.000004,57.000004 0 0 0 -0.39453,-0.082031 57.000004,57.000004 0 0 0 -0.11718,-0.023437 C 411.49539,3.7714328 409.72971,3.4960849 407.9375,3.3105469 a 57.000004,57.000004 0 0 0 -0.20312,-0.019531 C 405.84812,3.1025507 403.93588,3 402,3 H 401.98047 345 V 3.00977 H 231 117 V 3 H 60.019531 Z"
         transform="translate(238,452)" />
      <path
         id="path22"
         style="fill:#52d9ff;fill-opacity:1;stroke:#298199;stroke-width:12.1884;stroke-linejoin:round;stroke-miterlimit:4;stroke-dasharray:none;stroke-opacity:1;paint-order:markers stroke fill"
         d="m 640,559.26217 a 47.262176,47.262176 0 0 1 -0.52633,-0.003 47.262176,47.262176 0 0 1 -0.52632,-0.008 47.262176,47.262176 0 0 1 -0.52632,-0.0146 47.262176,47.262176 0 0 1 -0.52633,-0.0211 47.262176,47.262176 0 0 1 -0.5247,-0.0259 47.262176,47.262176 0 0 1 -0.52632,-0.0324 47.262176,47.262176 0 0 1 -0.52471,-0.0389 47.262176,47.262176 0 0 1 -0.5247,-0.0437 47.262176,47.262176 0 0 1 -0.5247,-0.0502 47.262176,47.262176 0 0 1 -0.52309,-0.0551 47.262176,47.262176 0 0 1 -0.52308,-0.0615 47.262176,47.262176 0 0 1 -0.52146,-0.0664 47.262176,47.262176 0 0 1 -0.52147,-0.0729 47.262176,47.262176 0 0 1 -0.51984,-0.0794 47.262176,47.262176 0 0 1 -0.51985,-0.0842 47.262176,47.262176 0 0 1 -0.51823,-0.0907 47.262176,47.262176 0 0 1 -0.51822,-0.0972 47.262176,47.262176 0 0 1 -0.51661,-0.10203 47.262176,47.262176 0 0 1 -0.51498,-0.10687 47.262176,47.262176 0 0 1 -0.51337,-0.11337 47.262176,47.262176 0 0 1 -0.51337,-0.11984 47.262176,47.262176 0 0 1 -0.51175,-0.12469 47.262176,47.262176 0 0 1 -0.51012,-0.12957 47.262176,47.262176 0 0 1 -0.50851,-0.13603 47.262176,47.262176 0 0 1 -0.50689,-0.14251 47.262176,47.262176 0 0 1 -0.50527,-0.14737 47.262176,47.262176 0 0 1 -0.50365,-0.15385 47.262176,47.262176 0 0 1 -0.50203,-0.15871 47.262176,47.262176 0 0 1 -0.4988,-0.16356 47.262176,47.262176 0 0 1 -0.49879,-0.17004 47.262176,47.262176 0 0 1 -0.49717,-0.1749 47.262176,47.262176 0 0 1 -0.49393,-0.18138 47.262176,47.262176 0 0 1 -0.49232,-0.18624 47.262176,47.262176 0 0 1 -0.48907,-0.19271 47.262176,47.262176 0 0 1 -0.48908,-0.19758 47.262176,47.262176 0 0 1 -0.48584,-0.20243 47.262176,47.262176 0 0 1 -0.48259,-0.20729 47.262176,47.262176 0 0 1 -0.48098,-0.21377 47.262176,47.262176 0 0 1 -0.47936,-0.21863 47.262176,47.262176 0 0 1 -0.47612,-0.2251 47.262176,47.262176 0 0 1 -0.4745,-0.22834 47.262176,47.262176 0 0 1 -0.47126,-0.23483 47.262176,47.262176 0 0 1 -0.46802,-0.24129 47.262176,47.262176 0 0 1 -0.46641,-0.24454 47.262176,47.262176 0 0 1 -0.46154,-0.25102 47.262176,47.262176 0 0 1 -0.46155,-0.25425 47.262176,47.262176 0 0 1 -0.45668,-0.26073 47.262176,47.262176 0 0 1 -0.45507,-0.26559 47.262176,47.262176 0 0 1 -0.45021,-0.27045 47.262176,47.262176 0 0 1 -0.44859,-0.27693 47.262176,47.262176 0 0 1 -0.44535,-0.28016 47.262176,47.262176 0 0 1 -0.44211,-0.28503 47.262176,47.262176 0 0 1 -0.43887,-0.2915 47.262176,47.262176 0 0 1 -0.43563,-0.29474 47.262176,47.262176 0 0 1 -0.4324,-0.30122 47.262176,47.262176 0 0 1 -0.42915,-0.30446 47.262176,47.262176 0 0 1 -0.42592,-0.30931 47.262176,47.262176 0 0 1 -0.42268,-0.3158 47.262176,47.262176 0 0 1 -0.41782,-0.31903 47.262176,47.262176 0 0 1 -0.41458,-0.32389 47.262176,47.262176 0 0 1 -0.41134,-0.32875 47.262176,47.262176 0 0 1 -0.4081,-0.33199 47.262176,47.262176 0 0 1 -0.40487,-0.33847 47.262176,47.262176 0 0 1 -0.4,-0.3417 47.262176,47.262176 0 0 1 -0.39515,-0.34657 47.262176,47.262176 0 0 1 -0.39353,-0.3498 47.262176,47.262176 0 0 1 -0.38867,-0.35628 47.262176,47.262176 0 0 1 -0.38381,-0.35951 47.262176,47.262176 0 0 1 -0.38057,-0.36276 47.262176,47.262176 0 0 1 -0.37571,-0.36923 47.262176,47.262176 0 0 1 -0.37248,-0.37086 47.262176,47.262176 0 0 1 -0.36923,-0.37734 47.262176,47.262176 0 0 1 -0.36276,-0.38057 47.262176,47.262176 0 0 1 -0.35952,-0.38381 47.262176,47.262176 0 0 1 -0.35628,-0.38867 47.262176,47.262176 0 0 1 -0.35142,-0.39191 47.262176,47.262176 0 0 1 -0.34656,-0.39676 47.262176,47.262176 0 0 1 -0.34171,-0.40001 47.262176,47.262176 0 0 1 -0.33685,-0.40324 47.262176,47.262176 0 0 1 -0.3336,-0.4081 47.262176,47.262176 0 0 1 -0.32875,-0.41135 47.262176,47.262176 0 0 1 -0.32389,-0.41458 47.262176,47.262176 0 0 1 -0.31904,-0.41782 47.262176,47.262176 0 0 1 -0.31579,-0.42267 47.262176,47.262176 0 0 1 -0.30932,-0.42592 47.262176,47.262176 0 0 1 -0.30445,-0.42754 47.262176,47.262176 0 0 1 -0.30122,-0.43239 47.262176,47.262176 0 0 1 -0.29474,-0.43563 47.262176,47.262176 0 0 1 -0.2915,-0.43888 47.262176,47.262176 0 0 1 -0.28503,-0.44211 47.262176,47.262176 0 0 1 -0.28178,-0.44535 47.262176,47.262176 0 0 1 -0.27531,-0.44835 47.262176,47.262176 0 0 1 -0.27207,-0.45182 47.262176,47.262176 0 0 1 -0.26559,-0.45345 47.262176,47.262176 0 0 1 -0.26073,-0.45831 47.262176,47.262176 0 0 1 -0.25588,-0.45992 47.262176,47.262176 0 0 1 -0.24939,-0.46317 47.262176,47.262176 0 0 1 -0.24616,-0.46478 47.262176,47.262176 0 0 1 -0.23968,-0.46802 47.262176,47.262176 0 0 1 -0.23482,-0.47126 47.262176,47.262176 0 0 1 -0.22996,-0.4745 47.262176,47.262176 0 0 1 -0.22349,-0.47612 47.262176,47.262176 0 0 1 -0.22024,-0.47774 47.262176,47.262176 0 0 1 -0.21377,-0.48098 47.262176,47.262176 0 0 1 -0.20729,-0.48422 47.262176,47.262176 0 0 1 -0.20405,-0.48583 47.262176,47.262176 0 0 1 -0.19758,-0.48746 47.262176,47.262176 0 0 1 -0.19109,-0.4907 47.262176,47.262176 0 0 1 -0.18624,-0.49231 47.262176,47.262176 0 0 1 -0.18138,-0.49393 47.262176,47.262176 0 0 1 -0.17652,-0.49556 47.262176,47.262176 0 0 1 -0.17004,-0.49879 47.262176,47.262176 0 0 1 -0.16357,-0.50041 47.262176,47.262176 0 0 1 -0.1587,-0.50203 47.262176,47.262176 0 0 1 -0.15385,-0.50365 47.262176,47.262176 0 0 1 -0.14737,-0.50527 47.262176,47.262176 0 0 1 -0.14251,-0.50689 47.262176,47.262176 0 0 1 -0.13604,-0.50851 47.262176,47.262176 0 0 1 -0.13117,-0.50851 47.262176,47.262176 0 0 1 -0.1247,-0.51175 47.262176,47.262176 0 0 1 -0.11984,-0.51336 47.262176,47.262176 0 0 1 -0.11336,-0.51337 47.262176,47.262176 0 0 1 -0.10689,-0.51499 47.262176,47.262176 0 0 1 -0.10364,-0.5166 47.262176,47.262176 0 0 1 -0.0956,-0.51823 47.262176,47.262176 0 0 1 -0.0907,-0.51823 47.262176,47.262176 0 0 1 -0.0842,-0.51984 47.262176,47.262176 0 0 1 -0.0793,-0.51985 47.262176,47.262176 0 0 1 -0.0729,-0.52146 47.262176,47.262176 0 0 1 -0.068,-0.52146 47.262176,47.262176 0 0 1 -0.0615,-0.52309 47.262176,47.262176 0 0 1 -0.0551,-0.52308 47.262176,47.262176 0 0 1 -0.0502,-0.52471 47.262176,47.262176 0 0 1 -0.0453,-0.5247 47.262176,47.262176 0 0 1 -0.0372,-0.5247 47.262176,47.262176 0 0 1 -0.0324,-0.52633 47.262176,47.262176 0 0 1 -0.0275,-0.5247 47.262176,47.262176 0 0 1 -0.0194,-0.52632 47.262176,47.262176 0 0 1 -0.0162,-0.52632 47.262176,47.262176 0 0 1 -0.008,-0.52633 47.262176,47.262176 0 0 1 -0.003,-0.52632 v 47.24598 z" />
      <path
         id="path16"
         style="fill:#52d9ff;fill-opacity:1;stroke:#298199;stroke-width:12.1884;stroke-linejoin:round;stroke-miterlimit:4;stroke-dasharray:none;stroke-opacity:1;paint-order:markers stroke fill"
         d="M 592.73782,464.73782 V 512 a 47.262176,47.262176 0 0 1 0.003,-0.52633 47.262176,47.262176 0 0 1 0.008,-0.52632 47.262176,47.262176 0 0 1 0.0146,-0.52632 47.262176,47.262176 0 0 1 0.0211,-0.52633 47.262176,47.262176 0 0 1 0.0259,-0.5247 47.262176,47.262176 0 0 1 0.0324,-0.52632 47.262176,47.262176 0 0 1 0.0389,-0.52471 47.262176,47.262176 0 0 1 0.0437,-0.5247 47.262176,47.262176 0 0 1 0.0502,-0.5247 47.262176,47.262176 0 0 1 0.0551,-0.52309 47.262176,47.262176 0 0 1 0.0615,-0.52308 47.262176,47.262176 0 0 1 0.0664,-0.52146 47.262176,47.262176 0 0 1 0.0729,-0.52147 47.262176,47.262176 0 0 1 0.0794,-0.51984 47.262176,47.262176 0 0 1 0.0842,-0.51985 47.262176,47.262176 0 0 1 0.0907,-0.51823 47.262176,47.262176 0 0 1 0.0972,-0.51822 47.262176,47.262176 0 0 1 0.10202,-0.51661 47.262176,47.262176 0 0 1 0.10689,-0.51498 47.262176,47.262176 0 0 1 0.11336,-0.51337 47.262176,47.262176 0 0 1 0.11984,-0.51337 47.262176,47.262176 0 0 1 0.12469,-0.51175 47.262176,47.262176 0 0 1 0.12956,-0.51012 47.262176,47.262176 0 0 1 0.13604,-0.50851 47.262176,47.262176 0 0 1 0.14251,-0.50689 47.262176,47.262176 0 0 1 0.14736,-0.50527 47.262176,47.262176 0 0 1 0.15385,-0.50365 47.262176,47.262176 0 0 1 0.15871,-0.50203 47.262176,47.262176 0 0 1 0.16356,-0.4988 47.262176,47.262176 0 0 1 0.17004,-0.49879 47.262176,47.262176 0 0 1 0.1749,-0.49717 47.262176,47.262176 0 0 1 0.18138,-0.49393 47.262176,47.262176 0 0 1 0.18624,-0.49232 47.262176,47.262176 0 0 1 0.19272,-0.48907 47.262176,47.262176 0 0 1 0.19757,-0.48908 47.262176,47.262176 0 0 1 0.20243,-0.48584 47.262176,47.262176 0 0 1 0.20729,-0.48259 47.262176,47.262176 0 0 1 0.21377,-0.48098 47.262176,47.262176 0 0 1 0.21863,-0.47936 47.262176,47.262176 0 0 1 0.2251,-0.47612 47.262176,47.262176 0 0 1 0.22834,-0.4745 47.262176,47.262176 0 0 1 0.23482,-0.47126 47.262176,47.262176 0 0 1 0.2413,-0.46802 47.262176,47.262176 0 0 1 0.24454,-0.46641 47.262176,47.262176 0 0 1 0.25102,-0.46154 47.262176,47.262176 0 0 1 0.25425,-0.46155 47.262176,47.262176 0 0 1 0.26073,-0.45668 47.262176,47.262176 0 0 1 0.26559,-0.45507 47.262176,47.262176 0 0 1 0.27045,-0.45021 47.262176,47.262176 0 0 1 0.27693,-0.44859 47.262176,47.262176 0 0 1 0.28016,-0.44535 47.262176,47.262176 0 0 1 0.28503,-0.44211 47.262176,47.262176 0 0 1 0.2915,-0.43887 47.262176,47.262176 0 0 1 0.29474,-0.43563 47.262176,47.262176 0 0 1 0.30122,-0.4324 47.262176,47.262176 0 0 1 0.30446,-0.42915 47.262176,47.262176 0 0 1 0.30931,-0.42592 47.262176,47.262176 0 0 1 0.3158,-0.42268 47.262176,47.262176 0 0 1 0.31903,-0.41782 47.262176,47.262176 0 0 1 0.32389,-0.41458 47.262176,47.262176 0 0 1 0.32875,-0.41134 47.262176,47.262176 0 0 1 0.33199,-0.4081 47.262176,47.262176 0 0 1 0.33846,-0.40487 47.262176,47.262176 0 0 1 0.34171,-0.4 47.262176,47.262176 0 0 1 0.34656,-0.39515 47.262176,47.262176 0 0 1 0.34981,-0.39353 47.262176,47.262176 0 0 1 0.35628,-0.38867 47.262176,47.262176 0 0 1 0.35951,-0.38381 47.262176,47.262176 0 0 1 0.36276,-0.38057 47.262176,47.262176 0 0 1 0.36924,-0.37571 47.262176,47.262176 0 0 1 0.37085,-0.37248 47.262176,47.262176 0 0 1 0.37734,-0.36923 47.262176,47.262176 0 0 1 0.38057,-0.36276 47.262176,47.262176 0 0 1 0.38381,-0.35952 47.262176,47.262176 0 0 1 0.38867,-0.35628 47.262176,47.262176 0 0 1 0.39191,-0.35142 47.262176,47.262176 0 0 1 0.39676,-0.34656 47.262176,47.262176 0 0 1 0.40001,-0.34171 47.262176,47.262176 0 0 1 0.40324,-0.33685 47.262176,47.262176 0 0 1 0.4081,-0.3336 47.262176,47.262176 0 0 1 0.41135,-0.32875 47.262176,47.262176 0 0 1 0.41458,-0.32389 47.262176,47.262176 0 0 1 0.41782,-0.31904 47.262176,47.262176 0 0 1 0.42267,-0.31579 47.262176,47.262176 0 0 1 0.42592,-0.30932 47.262176,47.262176 0 0 1 0.42754,-0.30445 47.262176,47.262176 0 0 1 0.43239,-0.30122 47.262176,47.262176 0 0 1 0.43563,-0.29474 47.262176,47.262176 0 0 1 0.43888,-0.2915 47.262176,47.262176 0 0 1 0.44211,-0.28503 47.262176,47.262176 0 0 1 0.44535,-0.28178 47.262176,47.262176 0 0 1 0.44859,-0.27531 47.262176,47.262176 0 0 1 0.45182,-0.27207 47.262176,47.262176 0 0 1 0.45345,-0.26559 47.262176,47.262176 0 0 1 0.45831,-0.26073 47.262176,47.262176 0 0 1 0.45992,-0.25588 47.262176,47.262176 0 0 1 0.46317,-0.24939 47.262176,47.262176 0 0 1 0.46478,-0.24616 47.262176,47.262176 0 0 1 0.46802,-0.23968 47.262176,47.262176 0 0 1 0.47126,-0.23482 47.262176,47.262176 0 0 1 0.47451,-0.22996 47.262176,47.262176 0 0 1 0.47612,-0.22349 47.262176,47.262176 0 0 1 0.47773,-0.22024 47.262176,47.262176 0 0 1 0.48098,-0.21377 47.262176,47.262176 0 0 1 0.48422,-0.20729 47.262176,47.262176 0 0 1 0.48584,-0.20405 47.262176,47.262176 0 0 1 0.48745,-0.19758 47.262176,47.262176 0 0 1 0.4907,-0.19109 47.262176,47.262176 0 0 1 0.49231,-0.18624 47.262176,47.262176 0 0 1 0.49393,-0.18138 47.262176,47.262176 0 0 1 0.49556,-0.17652 47.262176,47.262176 0 0 1 0.49879,-0.17004 47.262176,47.262176 0 0 1 0.50041,-0.16357 47.262176,47.262176 0 0 1 0.50203,-0.1587 47.262176,47.262176 0 0 1 0.50365,-0.15385 47.262176,47.262176 0 0 1 0.50527,-0.14737 47.262176,47.262176 0 0 1 0.50689,-0.14251 47.262176,47.262176 0 0 1 0.50851,-0.13604 47.262176,47.262176 0 0 1 0.50851,-0.13117 47.262176,47.262176 0 0 1 0.51175,-0.1247 47.262176,47.262176 0 0 1 0.51336,-0.11984 47.262176,47.262176 0 0 1 0.51337,-0.11336 47.262176,47.262176 0 0 1 0.51499,-0.10689 47.262176,47.262176 0 0 1 0.5166,-0.10364 47.262176,47.262176 0 0 1 0.51823,-0.0955 47.262176,47.262176 0 0 1 0.51823,-0.0907 47.262176,47.262176 0 0 1 0.51984,-0.0842 47.262176,47.262176 0 0 1 0.51985,-0.0793 47.262176,47.262176 0 0 1 0.52146,-0.0729 47.262176,47.262176 0 0 1 0.52147,-0.068 47.262176,47.262176 0 0 1 0.52308,-0.0615 47.262176,47.262176 0 0 1 0.52308,-0.0551 47.262176,47.262176 0 0 1 0.52471,-0.0502 47.262176,47.262176 0 0 1 0.5247,-0.0453 47.262176,47.262176 0 0 1 0.5247,-0.0372 47.262176,47.262176 0 0 1 0.52633,-0.0324 47.262176,47.262176 0 0 1 0.5247,-0.0275 47.262176,47.262176 0 0 1 0.52632,-0.0194 47.262176,47.262176 0 0 1 0.52633,-0.0162 47.262176,47.262176 0 0 1 0.52632,-0.008 47.262176,47.262176 0 0 1 0.52632,-0.003 z" />
      <circle
         style="fill:#52d9ff;fill-opacity:1;stroke:#298199;stroke-width:12.1884;stroke-linecap:round;stroke-linejoin:round;stroke-dasharray:none;stroke-opacity:1;paint-order:markers stroke fill;stop-color:#000000"
         id="path876"
         cx="640"
         cy="512"
         r="37.528091" />
      <path
         id="path884"
         style="fill:#52d9ff;fill-opacity:1;stroke:#298199;stroke-width:12.1884;stroke-linejoin:round;stroke-miterlimit:4;stroke-dasharray:none;stroke-opacity:1;paint-order:markers stroke fill"
         d="m 298,559.26219 a 47.262176,47.262176 0 0 0 0.52633,-0.003 47.262176,47.262176 0 0 0 0.52632,-0.008 47.262176,47.262176 0 0 0 0.52632,-0.0146 47.262176,47.262176 0 0 0 0.52633,-0.0211 47.262176,47.262176 0 0 0 0.5247,-0.0259 47.262176,47.262176 0 0 0 0.52632,-0.0324 47.262176,47.262176 0 0 0 0.52471,-0.0389 47.262176,47.262176 0 0 0 0.5247,-0.0437 47.262176,47.262176 0 0 0 0.5247,-0.0502 47.262176,47.262176 0 0 0 0.52309,-0.0551 47.262176,47.262176 0 0 0 0.52308,-0.0615 47.262176,47.262176 0 0 0 0.52146,-0.0664 47.262176,47.262176 0 0 0 0.52147,-0.0729 47.262176,47.262176 0 0 0 0.51984,-0.0794 47.262176,47.262176 0 0 0 0.51985,-0.0842 47.262176,47.262176 0 0 0 0.51823,-0.0907 47.262176,47.262176 0 0 0 0.51822,-0.0972 47.262176,47.262176 0 0 0 0.51661,-0.10203 47.262176,47.262176 0 0 0 0.51498,-0.10687 47.262176,47.262176 0 0 0 0.51337,-0.11337 47.262176,47.262176 0 0 0 0.51337,-0.11984 47.262176,47.262176 0 0 0 0.51175,-0.12469 47.262176,47.262176 0 0 0 0.51012,-0.12957 47.262176,47.262176 0 0 0 0.50851,-0.13603 47.262176,47.262176 0 0 0 0.50689,-0.14251 47.262176,47.262176 0 0 0 0.50527,-0.14737 47.262176,47.262176 0 0 0 0.50365,-0.15385 47.262176,47.262176 0 0 0 0.50203,-0.15871 47.262176,47.262176 0 0 0 0.4988,-0.16356 47.262176,47.262176 0 0 0 0.49879,-0.17004 47.262176,47.262176 0 0 0 0.49717,-0.1749 47.262176,47.262176 0 0 0 0.49393,-0.18138 47.262176,47.262176 0 0 0 0.49232,-0.18624 47.262176,47.262176 0 0 0 0.48907,-0.19271 47.262176,47.262176 0 0 0 0.48908,-0.19758 47.262176,47.262176 0 0 0 0.48584,-0.20243 47.262176,47.262176 0 0 0 0.48259,-0.20729 47.262176,47.262176 0 0 0 0.48098,-0.21377 47.262176,47.262176 0 0 0 0.47936,-0.21863 47.262176,47.262176 0 0 0 0.47612,-0.2251 47.262176,47.262176 0 0 0 0.4745,-0.22834 47.262176,47.262176 0 0 0 0.47126,-0.23483 47.262176,47.262176 0 0 0 0.46802,-0.24129 47.262176,47.262176 0 0 0 0.46641,-0.24454 47.262176,47.262176 0 0 0 0.46154,-0.25102 47.262176,47.262176 0 0 0 0.46155,-0.25425 47.262176,47.262176 0 0 0 0.45668,-0.26073 47.262176,47.262176 0 0 0 0.45507,-0.26559 47.262176,47.262176 0 0 0 0.45021,-0.27045 47.262176,47.262176 0 0 0 0.44859,-0.27693 47.262176,47.262176 0 0 0 0.44535,-0.28016 47.262176,47.262176 0 0 0 0.44211,-0.28503 47.262176,47.262176 0 0 0 0.43887,-0.2915 47.262176,47.262176 0 0 0 0.43563,-0.29474 47.262176,47.262176 0 0 0 0.4324,-0.30122 47.262176,47.262176 0 0 0 0.42915,-0.30446 47.262176,47.262176 0 0 0 0.42592,-0.30931 47.262176,47.262176 0 0 0 0.42268,-0.3158 47.262176,47.262176 0 0 0 0.41782,-0.31903 47.262176,47.262176 0 0 0 0.41458,-0.32389 47.262176,47.262176 0 0 0 0.41134,-0.32875 47.262176,47.262176 0 0 0 0.4081,-0.33199 47.262176,47.262176 0 0 0 0.40487,-0.33847 47.262176,47.262176 0 0 0 0.4,-0.3417 47.262176,47.262176 0 0 0 0.39515,-0.34657 47.262176,47.262176 0 0 0 0.39353,-0.3498 47.262176,47.262176 0 0 0 0.38867,-0.35628 47.262176,47.262176 0 0 0 0.38381,-0.35951 47.262176,47.262176 0 0 0 0.38057,-0.36276 47.262176,47.262176 0 0 0 0.37571,-0.36923 47.262176,47.262176 0 0 0 0.37248,-0.37086 47.262176,47.262176 0 0 0 0.36923,-0.37734 47.262176,47.262176 0 0 0 0.36276,-0.38057 47.262176,47.262176 0 0 0 0.35952,-0.38381 47.262176,47.262176 0 0 0 0.35628,-0.38867 47.262176,47.262176 0 0 0 0.35142,-0.39191 47.262176,47.262176 0 0 0 0.34656,-0.39676 47.262176,47.262176 0 0 0 0.34171,-0.40001 47.262176,47.262176 0 0 0 0.33685,-0.40324 47.262176,47.262176 0 0 0 0.3336,-0.4081 47.262176,47.262176 0 0 0 0.32875,-0.41135 47.262176,47.262176 0 0 0 0.32389,-0.41458 47.262176,47.262176 0 0 0 0.31904,-0.41782 47.262176,47.262176 0 0 0 0.31579,-0.42267 47.262176,47.262176 0 0 0 0.30932,-0.42592 47.262176,47.262176 0 0 0 0.30445,-0.42754 47.262176,47.262176 0 0 0 0.30122,-0.43239 47.262176,47.262176 0 0 0 0.29474,-0.43563 47.262176,47.262176 0 0 0 0.2915,-0.43888 47.262176,47.262176 0 0 0 0.28503,-0.44211 47.262176,47.262176 0 0 0 0.28178,-0.44535 47.262176,47.262176 0 0 0 0.27531,-0.44835 47.262176,47.262176 0 0 0 0.27207,-0.45182 47.262176,47.262176 0 0 0 0.26559,-0.45345 47.262176,47.262176 0 0 0 0.26073,-0.45831 47.262176,47.262176 0 0 0 0.25588,-0.45992 47.262176,47.262176 0 0 0 0.24939,-0.46317 47.262176,47.262176 0 0 0 0.24616,-0.46478 47.262176,47.262176 0 0 0 0.23968,-0.46802 47.262176,47.262176 0 0 0 0.23482,-0.47126 47.262176,47.262176 0 0 0 0.22996,-0.4745 47.262176,47.262176 0 0 0 0.22349,-0.47612 47.262176,47.262176 0 0 0 0.22024,-0.47774 47.262176,47.262176 0 0 0 0.21377,-0.48098 47.262176,47.262176 0 0 0 0.20729,-0.48422 47.262176,47.262176 0 0 0 0.20405,-0.48583 47.262176,47.262176 0 0 0 0.19758,-0.48746 47.262176,47.262176 0 0 0 0.19109,-0.4907 47.262176,47.262176 0 0 0 0.18624,-0.49231 47.262176,47.262176 0 0 0 0.18138,-0.49393 47.262176,47.262176 0 0 0 0.17652,-0.49556 47.262176,47.262176 0 0 0 0.17004,-0.49879 47.262176,47.262176 0 0 0 0.16357,-0.50041 47.262176,47.262176 0 0 0 0.1587,-0.50203 47.262176,47.262176 0 0 0 0.15385,-0.50365 47.262176,47.262176 0 0 0 0.14737,-0.50527 47.262176,47.262176 0 0 0 0.14251,-0.50689 47.262176,47.262176 0 0 0 0.13604,-0.50851 47.262176,47.262176 0 0 0 0.13117,-0.50851 47.262176,47.262176 0 0 0 0.1247,-0.51175 47.262176,47.262176 0 0 0 0.11984,-0.51336 47.262176,47.262176 0 0 0 0.11336,-0.51337 47.262176,47.262176 0 0 0 0.10689,-0.51499 47.262176,47.262176 0 0 0 0.10364,-0.5166 47.262176,47.262176 0 0 0 0.0956,-0.51823 47.262176,47.262176 0 0 0 0.0907,-0.51823 47.262176,47.262176 0 0 0 0.0842,-0.51984 47.262176,47.262176 0 0 0 0.0793,-0.51985 47.262176,47.262176 0 0 0 0.0729,-0.52146 47.262176,47.262176 0 0 0 0.068,-0.52146 47.262176,47.262176 0 0 0 0.0615,-0.52309 47.262176,47.262176 0 0 0 0.0551,-0.52308 47.262176,47.262176 0 0 0 0.0502,-0.52471 47.262176,47.262176 0 0 0 0.0453,-0.5247 47.262176,47.262176 0 0 0 0.0372,-0.5247 47.262176,47.262176 0 0 0 0.0324,-0.52633 47.262176,47.262176 0 0 0 0.0275,-0.5247 47.262176,47.262176 0 0 0 0.0194,-0.52632 47.262176,47.262176 0 0 0 0.0162,-0.52632 47.262176,47.262176 0 0 0 0.008,-0.52633 47.262176,47.262176 0 0 0 0.003,-0.52632 v 47.24598 z" />
      <path
         id="path886"
         style="fill:#52d9ff;fill-opacity:1;stroke:#298199;stroke-width:12.1884;stroke-linejoin:round;stroke-miterlimit:4;stroke-dasharray:none;stroke-opacity:1;paint-order:markers stroke fill"
         d="m 345.26218,464.73784 v 47.26218 a 47.262176,47.262176 0 0 0 -0.003,-0.52633 47.262176,47.262176 0 0 0 -0.008,-0.52632 47.262176,47.262176 0 0 0 -0.0146,-0.52632 47.262176,47.262176 0 0 0 -0.0211,-0.52633 47.262176,47.262176 0 0 0 -0.0259,-0.5247 47.262176,47.262176 0 0 0 -0.0324,-0.52632 47.262176,47.262176 0 0 0 -0.0389,-0.52471 47.262176,47.262176 0 0 0 -0.0437,-0.5247 47.262176,47.262176 0 0 0 -0.0502,-0.5247 47.262176,47.262176 0 0 0 -0.0551,-0.52309 47.262176,47.262176 0 0 0 -0.0615,-0.52308 47.262176,47.262176 0 0 0 -0.0664,-0.52146 47.262176,47.262176 0 0 0 -0.0729,-0.52147 47.262176,47.262176 0 0 0 -0.0794,-0.51984 47.262176,47.262176 0 0 0 -0.0842,-0.51985 47.262176,47.262176 0 0 0 -0.0907,-0.51823 47.262176,47.262176 0 0 0 -0.0972,-0.51822 47.262176,47.262176 0 0 0 -0.10202,-0.51661 47.262176,47.262176 0 0 0 -0.10689,-0.51498 47.262176,47.262176 0 0 0 -0.11336,-0.51337 47.262176,47.262176 0 0 0 -0.11984,-0.51337 47.262176,47.262176 0 0 0 -0.12469,-0.51175 47.262176,47.262176 0 0 0 -0.12956,-0.51012 47.262176,47.262176 0 0 0 -0.13604,-0.50851 47.262176,47.262176 0 0 0 -0.14251,-0.50689 47.262176,47.262176 0 0 0 -0.14736,-0.50527 47.262176,47.262176 0 0 0 -0.15385,-0.50365 47.262176,47.262176 0 0 0 -0.15871,-0.50203 47.262176,47.262176 0 0 0 -0.16356,-0.4988 47.262176,47.262176 0 0 0 -0.17004,-0.49879 47.262176,47.262176 0 0 0 -0.1749,-0.49717 47.262176,47.262176 0 0 0 -0.18138,-0.49393 47.262176,47.262176 0 0 0 -0.18624,-0.49232 47.262176,47.262176 0 0 0 -0.19272,-0.48907 47.262176,47.262176 0 0 0 -0.19757,-0.48908 47.262176,47.262176 0 0 0 -0.20243,-0.48584 47.262176,47.262176 0 0 0 -0.20729,-0.48259 47.262176,47.262176 0 0 0 -0.21377,-0.48098 47.262176,47.262176 0 0 0 -0.21863,-0.47936 47.262176,47.262176 0 0 0 -0.2251,-0.47612 47.262176,47.262176 0 0 0 -0.22834,-0.4745 47.262176,47.262176 0 0 0 -0.23482,-0.47126 47.262176,47.262176 0 0 0 -0.2413,-0.46802 47.262176,47.262176 0 0 0 -0.24454,-0.46641 47.262176,47.262176 0 0 0 -0.25102,-0.46154 47.262176,47.262176 0 0 0 -0.25425,-0.46155 47.262176,47.262176 0 0 0 -0.26073,-0.45668 47.262176,47.262176 0 0 0 -0.26559,-0.45507 47.262176,47.262176 0 0 0 -0.27045,-0.45021 47.262176,47.262176 0 0 0 -0.27693,-0.44859 47.262176,47.262176 0 0 0 -0.28016,-0.44535 47.262176,47.262176 0 0 0 -0.28503,-0.44211 47.262176,47.262176 0 0 0 -0.2915,-0.43887 47.262176,47.262176 0 0 0 -0.29474,-0.43563 47.262176,47.262176 0 0 0 -0.30122,-0.4324 47.262176,47.262176 0 0 0 -0.30446,-0.42915 47.262176,47.262176 0 0 0 -0.30931,-0.42592 47.262176,47.262176 0 0 0 -0.3158,-0.42268 47.262176,47.262176 0 0 0 -0.31903,-0.41782 47.262176,47.262176 0 0 0 -0.32389,-0.41458 47.262176,47.262176 0 0 0 -0.32875,-0.41134 47.262176,47.262176 0 0 0 -0.33199,-0.4081 47.262176,47.262176 0 0 0 -0.33846,-0.40487 47.262176,47.262176 0 0 0 -0.34171,-0.4 47.262176,47.262176 0 0 0 -0.34656,-0.39515 47.262176,47.262176 0 0 0 -0.34981,-0.39353 47.262176,47.262176 0 0 0 -0.35628,-0.38867 47.262176,47.262176 0 0 0 -0.35951,-0.38381 47.262176,47.262176 0 0 0 -0.36276,-0.38057 47.262176,47.262176 0 0 0 -0.36924,-0.37571 47.262176,47.262176 0 0 0 -0.37085,-0.37248 47.262176,47.262176 0 0 0 -0.37734,-0.36923 47.262176,47.262176 0 0 0 -0.38057,-0.36276 47.262176,47.262176 0 0 0 -0.38381,-0.35952 47.262176,47.262176 0 0 0 -0.38867,-0.35628 47.262176,47.262176 0 0 0 -0.39191,-0.35142 47.262176,47.262176 0 0 0 -0.39676,-0.34656 47.262176,47.262176 0 0 0 -0.40001,-0.34171 47.262176,47.262176 0 0 0 -0.40324,-0.33685 47.262176,47.262176 0 0 0 -0.4081,-0.3336 47.262176,47.262176 0 0 0 -0.41135,-0.32875 47.262176,47.262176 0 0 0 -0.41458,-0.32389 47.262176,47.262176 0 0 0 -0.41782,-0.31904 47.262176,47.262176 0 0 0 -0.42267,-0.31579 47.262176,47.262176 0 0 0 -0.42592,-0.30932 47.262176,47.262176 0 0 0 -0.42754,-0.30445 47.262176,47.262176 0 0 0 -0.43239,-0.30122 47.262176,47.262176 0 0 0 -0.43563,-0.29474 47.262176,47.262176 0 0 0 -0.43888,-0.2915 47.262176,47.262176 0 0 0 -0.44211,-0.28503 47.262176,47.262176 0 0 0 -0.44535,-0.28178 47.262176,47.262176 0 0 0 -0.44859,-0.27531 47.262176,47.262176 0 0 0 -0.45182,-0.27207 47.262176,47.262176 0 0 0 -0.45345,-0.26559 47.262176,47.262176 0 0 0 -0.45831,-0.26073 47.262176,47.262176 0 0 0 -0.45992,-0.25588 47.262176,47.262176 0 0 0 -0.46317,-0.24939 47.262176,47.262176 0 0 0 -0.46478,-0.24616 47.262176,47.262176 0 0 0 -0.46802,-0.23968 47.262176,47.262176 0 0 0 -0.47126,-0.23482 47.262176,47.262176 0 0 0 -0.47451,-0.22996 47.262176,47.262176 0 0 0 -0.47612,-0.22349 47.262176,47.262176 0 0 0 -0.47773,-0.22024 47.262176,47.262176 0 0 0 -0.48098,-0.21377 47.262176,47.262176 0 0 0 -0.48422,-0.20729 47.262176,47.262176 0 0 0 -0.48584,-0.20405 47.262176,47.262176 0 0 0 -0.48745,-0.19758 47.262176,47.262176 0 0 0 -0.4907,-0.19109 47.262176,47.262176 0 0 0 -0.49231,-0.18624 47.262176,47.262176 0 0 0 -0.49393,-0.18138 47.262176,47.262176 0 0 0 -0.49556,-0.17652 47.262176,47.262176 0 0 0 -0.49879,-0.17004 47.262176,47.262176 0 0 0 -0.50041,-0.16357 47.262176,47.262176 0 0 0 -0.50203,-0.1587 47.262176,47.262176 0 0 0 -0.50365,-0.15385 47.262176,47.262176 0 0 0 -0.50527,-0.14737 47.262176,47.262176 0 0 0 -0.50689,-0.14251 47.262176,47.262176 0 0 0 -0.50851,-0.13604 47.262176,47.262176 0 0 0 -0.50851,-0.13117 47.262176,47.262176 0 0 0 -0.51175,-0.1247 47.262176,47.262176 0 0 0 -0.51336,-0.11984 47.262176,47.262176 0 0 0 -0.51337,-0.11336 47.262176,47.262176 0 0 0 -0.51499,-0.10689 47.262176,47.262176 0 0 0 -0.5166,-0.10364 47.262176,47.262176 0 0 0 -0.51823,-0.0955 47.262176,47.262176 0 0 0 -0.51823,-0.0907 47.262176,47.262176 0 0 0 -0.51984,-0.0842 47.262176,47.262176 0 0 0 -0.51985,-0.0793 47.262176,47.262176 0 0 0 -0.52146,-0.0729 47.262176,47.262176 0 0 0 -0.52147,-0.068 47.262176,47.262176 0 0 0 -0.52308,-0.0615 47.262176,47.262176 0 0 0 -0.52308,-0.0551 47.262176,47.262176 0 0 0 -0.52471,-0.0502 47.262176,47.262176 0 0 0 -0.5247,-0.0453 47.262176,47.262176 0 0 0 -0.5247,-0.0372 47.262176,47.262176 0 0 0 -0.52633,-0.0324 47.262176,47.262176 0 0 0 -0.5247,-0.0275 47.262176,47.262176 0 0 0 -0.52632,-0.0194 47.262176,47.262176 0 0 0 -0.52633,-0.0162 47.262176,47.262176 0 0 0 -0.52632,-0.008 47.262176,47.262176 0 0 0 -0.52632,-0.003 z" />
      <circle
         style="fill:#52d9ff;fill-opacity:1;stroke:#298199;stroke-width:12.1884;stroke-linecap:round;stroke-linejoin:round;stroke-dasharray:none;stroke-opacity:1;paint-order:markers stroke fill;stop-color:#000000"
         id="circle888"
         cx="-298"
         cy="512"
         r="37.528091"
         transform="scale(-1,1)" />
      <rect
         style="fill:#52d9ff;fill-opacity:1;stroke:#298199;stroke-width:12.1884;stroke-linecap:round;stroke-linejoin:round;stroke-dasharray:none;stroke-opacity:1;paint-order:markers stroke fill;stop-color:#000000"
         id="rect890"
         width="94.111115"
         height="94.111115"
         x="364.94443"
         y="464.95419" />
      <rect
         style="fill:#00b0e1;fill-opacity:1;stroke:#298199;stroke-width:12.1884;stroke-linecap:round;stroke-linejoin:round;stroke-dasharray:none;stroke-opacity:1;paint-order:markers stroke fill;stop-color:#000000"
         id="rect892"
         width="67.592598"
         height="67.592598"
         x="378.20367"
         y="478.21344" />
      <rect
         style="fill:#52d9ff;fill-opacity:1;stroke:#298199;stroke-width:12.1884;stroke-linecap:round;stroke-linejoin:round;stroke-dasharray:none;stroke-opacity:1;paint-order:markers stroke fill;stop-color:#000000"
         id="rect894"
         width="94.111115"
         height="94.111115"
         x="478.94446"
         y="464.95422" />
      <rect
         style="fill:#00b0e1;fill-opacity:1;stroke:#298199;stroke-width:12.1884;stroke-linecap:round;stroke-linejoin:round;stroke-dasharray:none;stroke-opacity:1;paint-order:markers stroke fill;stop-color:#000000"
         id="rect896"
         width="67.592598"
         height="67.592598"
         x="492.20367"
         y="478.21344" />
    </g>
  </g>
</svg>
