<?xml version="1.0" encoding="UTF-8" standalone="no"?>
<svg
   version="1.1"
   id="svg870"
   width="240"
   height="240"
   viewBox="0 0 239.99999 240"
   sodipodi:docname="Waver.svg"
   inkscape:version="1.4.3 (0d15f75042, 2025-12-25)"
   inkscape:export-filename="C:\Users\rodri\Pictures\Arras Images\actualtanks\Waver.png"
   inkscape:export-xdpi="863.99994"
   inkscape:export-ydpi="863.99994"
   xmlns:inkscape="http://www.inkscape.org/namespaces/inkscape"
   xmlns:sodipodi="http://sodipodi.sourceforge.net/DTD/sodipodi-0.dtd"
   xmlns="http://www.w3.org/2000/svg"
   xmlns:svg="http://www.w3.org/2000/svg"
   xmlns:rdf="http://www.w3.org/1999/02/22-rdf-syntax-ns#"
   xmlns:cc="http://creativecommons.org/ns#"
   xmlns:dc="http://purl.org/dc/elements/1.1/">
  <metadata
     id="metadata876">
    <rdf:RDF>
      <cc:Work
         rdf:about="">
        <dc:format>image/svg+xml</dc:format>
        <dc:type
           rdf:resource="http://purl.org/dc/dcmitype/StillImage" />
      </cc:Work>
    </rdf:RDF>
  </metadata>
  <defs
     id="defs874" />
  <sodipodi:namedview
     inkscape:snap-object-midpoints="false"
     inkscape:document-rotation="0"
     pagecolor="#ffffff"
     bordercolor="#666666"
     borderopacity="1"
     objecttolerance="10"
     gridtolerance="10"
     guidetolerance="10"
     inkscape:pageopacity="0"
     inkscape:pageshadow="2"
     inkscape:window-width="1920"
     inkscape:window-height="1008"
     id="namedview872"
     showgrid="false"
     inkscape:zoom="3.3583333"
     inkscape:cx="119.85112"
     inkscape:cy="120"
     inkscape:window-x="0"
     inkscape:window-y="0"
     inkscape:window-maximized="1"
     inkscape:current-layer="g878"
     inkscape:object-nodes="false"
     inkscape:snap-center="false"
     inkscape:snap-smooth-nodes="false"
     inkscape:snap-midpoints="false"
     inkscape:showpageshadow="2"
     inkscape:pagecheckerboard="0"
     inkscape:deskcolor="#d1d1d1" />
  <g
     inkscape:groupmode="layer"
     inkscape:label="Image"
     id="g878"
     transform="translate(-451.60279,-307.51269)">
    <g
       id="g1"
       style="stroke-width:2.03155;paint-order:markers stroke fill"
       transform="matrix(0.3478344,-0.3478344,0.34828957,0.34828957,170.66451,471.80245)">
      <path
         id="path19"
         style="fill:#333333;fill-opacity:1;stroke:#333333;stroke-width:12.1893;stroke-linecap:round;stroke-linejoin:round;stroke-opacity:1;paint-order:markers stroke fill;stop-color:#000000"
         inkscape:transform-center-x="-0.021063385"
         d="m 634.50293,310.51269 c -12.6116,0 -25.22299,4.00674 -36.52344,12.02148 v 32.64063 84.04102 c -10.7347,18.59307 -31.59131,28.90305 -52.84179,26.1211 -21.25053,-2.78197 -38.71053,-18.10582 -44.24024,-38.82813 l -9.46679,-36.10937 c -12.5912,5.77911 -22.36607,14.69716 -28.67188,25.61914 -6.3058,10.92196 -9.1423,23.84678 -7.85156,37.64062 l 28.26758,16.32032 72.7832,42.01953 c 10.73473,18.59306 9.23372,41.80976 -3.80078,58.82226 -13.03451,17.0125 -35.03518,24.47266 -55.7461,18.90039 l -36.00586,-9.85742 c -1.29073,13.79385 1.54575,26.71866 7.85157,37.64063 6.30579,10.92196 16.08069,19.84003 28.67187,25.61914 l 28.26758,-16.32031 72.7832,-42.01954 c 21.46943,-2e-5 40.82502,12.90673 49.04102,32.70118 8.216,19.79448 3.67533,42.57848 -11.50586,57.72851 l -26.53906,26.25195 c 11.30044,8.01474 23.91182,12.02149 36.52343,12.02149 12.6116,0 25.22299,-4.00675 36.52344,-12.02149 V 668.8252 584.78418 c 10.7347,-18.59308 31.58934,-28.90305 52.83984,-26.12109 21.25052,2.78197 38.71246,18.10581 44.24219,38.82813 l 9.46484,36.10937 c 12.59119,-5.77912 22.36608,-14.69716 28.67188,-25.61914 6.3058,-10.92196 9.1423,-23.84679 7.85156,-37.64063 l -28.26758,-16.32031 -72.78125,-42.02148 c -10.73473,-18.59306 -9.23567,-41.80782 3.79883,-58.82031 13.03452,-17.0125 35.03714,-24.47268 55.74805,-18.9004 l 36.00391,9.85743 c 1.29074,-13.79385 -1.54576,-26.71866 -7.85157,-37.64063 -6.3058,-10.92197 -16.08067,-19.84003 -28.67187,-25.61914 l -28.26758,16.32031 -72.78125,42.01953 c -21.46943,10e-6 -40.82502,-12.90672 -49.04102,-32.70117 -8.216,-19.79448 -3.67533,-42.57847 11.50586,-57.72851 l 26.53907,-26.25196 c -11.30046,-8.01474 -23.91183,-12.02148 -36.52344,-12.02149 z" />
      <circle
         style="fill:#00b0e1;fill-opacity:1;stroke:#298199;stroke-width:12.1893;stroke-linejoin:round;stroke-miterlimit:4;stroke-dasharray:none;stroke-opacity:1;paint-order:markers stroke fill"
         id="path22"
         cx="640"
         cy="512"
         r="57.000004" />
    </g>
  </g>
</svg>
