<?xml version="1.0" encoding="UTF-8" standalone="no"?>
<!-- Created with Inkscape (http://www.inkscape.org/) -->

<svg
   width="120"
   height="120"
   viewBox="0 0 120 120"
   version="1.1"
   id="svg1"
   inkscape:version="1.4.3 (0d15f75042, 2025-12-25)"
   sodipodi:docname="semy_irregular.svg"
   inkscape:export-filename="8ps.png"
   inkscape:export-xdpi="96"
   inkscape:export-ydpi="96"
   xmlns:inkscape="http://www.inkscape.org/namespaces/inkscape"
   xmlns:sodipodi="http://sodipodi.sourceforge.net/DTD/sodipodi-0.dtd"
   xmlns="http://www.w3.org/2000/svg"
   xmlns:svg="http://www.w3.org/2000/svg">
  <sodipodi:namedview
     id="namedview1"
     pagecolor="#ffffff"
     bordercolor="#000000"
     borderopacity="0.25"
     inkscape:showpageshadow="2"
     inkscape:pageopacity="0.0"
     inkscape:pagecheckerboard="0"
     inkscape:deskcolor="#d1d1d1"
     inkscape:document-units="px"
     inkscape:zoom="6.7166667"
     inkscape:cx="59.925558"
     inkscape:cy="60"
     inkscape:window-width="1920"
     inkscape:window-height="1008"
     inkscape:window-x="0"
     inkscape:window-y="0"
     inkscape:window-maximized="1"
     inkscape:current-layer="layer1" />
  <defs
     id="defs1" />
  <g
     inkscape:label="Camada 1"
     inkscape:groupmode="layer"
     id="layer1">
    <rect
       style="fill:#003153;stroke:none;stroke-linecap:round;stroke-linejoin:round"
       id="rect1"
       width="120"
       height="120"
       x="0"
       y="0" />
    <path
       sodipodi:type="star"
       style="fill:#ffffff;stroke:none;stroke-linecap:round;stroke-linejoin:round"
       id="path39"
       inkscape:flatsided="true"
       sodipodi:sides="36"
       sodipodi:cx="36.029777"
       sodipodi:cy="41.389578"
       sodipodi:r1="26.089873"
       sodipodi:r2="25.990593"
       sodipodi:arg1="0.78539816"
       sodipodi:arg2="0.87266463"
       inkscape:rounded="0"
       inkscape:randomized="0"
       d="m 54.478103,59.837905 -3.483789,2.923247 -3.93848,2.273882 -4.273501,1.555427 -4.478673,0.789711 -4.547765,0 -4.478673,-0.789711 -4.273501,-1.555427 -3.938479,-2.273882 -3.48379,-2.923246 -2.923247,-3.48379 -2.273882,-3.93848 -1.555427,-4.2735 -0.789711,-4.478674 0,-4.547764 0.789711,-4.478674 1.555427,-4.273501 2.273882,-3.938479 2.923247,-3.48379 3.483789,-2.923246 3.93848,-2.273883 4.273501,-1.555427 4.478673,-0.789711 4.547765,0 4.478673,0.789711 4.273501,1.555427 3.938479,2.273882 3.48379,2.923247 2.923247,3.48379 2.273882,3.938479 1.555427,4.273501 0.789711,4.478673 0,4.547765 -0.789711,4.478674 -1.555427,4.2735 -2.273882,3.93848 z" />
    <path
       sodipodi:type="star"
       style="fill:#ffd700;stroke:none;stroke-linecap:round;stroke-linejoin:round"
       id="path40"
       inkscape:flatsided="true"
       sodipodi:sides="12"
       sodipodi:cx="86.650124"
       sodipodi:cy="28.585608"
       sodipodi:r1="15.980534"
       sodipodi:r2="15.436011"
       sodipodi:arg1="0.26179939"
       sodipodi:arg2="0.52359878"
       inkscape:rounded="0"
       inkscape:randomized="0"
       d="m 102.08613,32.721674 -4.136063,7.163877 -7.163877,4.136067 -8.272133,0 -7.163877,-4.136067 -4.136067,-7.163877 0,-8.272133 4.136067,-7.163877 7.163877,-4.136067 8.272133,0 7.163877,4.136067 4.136063,7.163877 z" />
    <path
       sodipodi:type="star"
       style="fill:#ffd700;stroke:none;stroke-linecap:round;stroke-linejoin:round"
       id="path41"
       inkscape:flatsided="true"
       sodipodi:sides="6"
       sodipodi:cx="97.667494"
       sodipodi:cy="65.657568"
       sodipodi:r1="13.600641"
       sodipodi:r2="11.778501"
       sodipodi:arg1="-0.78539816"
       sodipodi:arg2="-0.26179939"
       inkscape:rounded="0"
       inkscape:randomized="0"
       d="m 107.2846,56.040464 3.52011,13.137211 -9.61711,9.617106 -13.13721,-3.520105 -3.520105,-13.137211 9.617106,-9.617106 z" />
    <path
       sodipodi:type="star"
       style="fill:#ffffff;stroke:none;stroke-linecap:round;stroke-linejoin:round"
       id="path42"
       inkscape:flatsided="true"
       sodipodi:sides="6"
       sodipodi:cx="66.253102"
       sodipodi:cy="69.528536"
       sodipodi:r1="10.325682"
       sodipodi:r2="8.9423029"
       sodipodi:arg1="-0.43140073"
       sodipodi:arg2="0.092198049"
       inkscape:rounded="0"
       inkscape:randomized="0"
       d="m 75.632758,65.210916 -0.95066,10.281826 -9.379652,4.317618 -8.428993,-5.964208 0.950659,-10.281826 9.379653,-4.317618 z" />
    <rect
       style="fill:#ffffff;stroke:none;stroke-linecap:round;stroke-linejoin:round"
       id="rect42"
       width="27.990074"
       height="27.990074"
       x="14.292804"
       y="77.568237" />
    <path
       sodipodi:type="star"
       style="fill:#ffd700;stroke:none;stroke-linecap:round;stroke-linejoin:round"
       id="path43"
       inkscape:flatsided="true"
       sodipodi:sides="3"
       sodipodi:cx="63.126551"
       sodipodi:cy="99.156328"
       sodipodi:r1="9.1596556"
       sodipodi:r2="4.5798278"
       sodipodi:arg1="0"
       sodipodi:arg2="1.0471976"
       inkscape:rounded="0"
       inkscape:randomized="0"
       d="m 72.286208,99.156326 -13.739483,7.932494 0,-15.864988 z"
       inkscape:transform-center-x="-2.2899139" />
    <path
       sodipodi:type="star"
       style="fill:#ffffff;stroke:none;stroke-linecap:round;stroke-linejoin:round"
       id="path44"
       inkscape:flatsided="true"
       sodipodi:sides="3"
       sodipodi:cx="87.990074"
       sodipodi:cy="87.096774"
       sodipodi:r1="7.5594058"
       sodipodi:r2="3.7797029"
       sodipodi:arg1="2.0943951"
       sodipodi:arg2="3.1415927"
       inkscape:rounded="0"
       inkscape:randomized="0"
       d="m 84.210371,93.643409 0,-13.093275 11.339109,6.546637 z"
       inkscape:transform-center-x="-1.8898515" />
    <path
       sodipodi:type="star"
       style="fill:#ffffff;stroke:none;stroke-linecap:round;stroke-linejoin:round"
       id="path45"
       inkscape:flatsided="false"
       sodipodi:sides="8"
       sodipodi:cx="101.98511"
       sodipodi:cy="101.53846"
       sodipodi:r1="10.323535"
       sodipodi:r2="5.1617675"
       sodipodi:arg1="0.52359878"
       sodipodi:arg2="0.91629786"
       inkscape:rounded="0"
       inkscape:randomized="0"
       d="m 110.92555,106.70023 -5.79816,-1.06666 -0.47036,5.87666 -3.34567,-4.85416 -4.48802,3.82283 1.066662,-5.79816 -5.876664,-0.47035 4.854162,-3.34568 -3.822836,-4.488018 5.798158,1.066662 0.470358,-5.876663 3.34567,4.854161 4.48802,-3.822836 -1.06666,5.798159 5.87667,0.470357 -4.85416,3.345678 z" />
  </g>
</svg>
